<?xml version="1.0" encoding="UTF-8" standalone="no"?>
<!-- Generator: Adobe Illustrator 18.1.0, SVG Export Plug-In . SVG Version: 6.00 Build 0)  -->

<svg
   xmlns:dc="http://purl.org/dc/elements/1.1/"
   xmlns:cc="http://creativecommons.org/ns#"
   xmlns:rdf="http://www.w3.org/1999/02/22-rdf-syntax-ns#"
   xmlns:svg="http://www.w3.org/2000/svg"
   xmlns="http://www.w3.org/2000/svg"
   xmlns:sodipodi="http://sodipodi.sourceforge.net/DTD/sodipodi-0.dtd"
   xmlns:inkscape="http://www.inkscape.org/namespaces/inkscape"
   version="1.0"
   x="0px"
   y="0px"
   viewBox="0 0 45 45"
   enable-background="new 0 0 152 117.5"
   xml:space="preserve"
   id="svg50"
   sodipodi:docname="Azure SQL Database.svg"
   width="45"
   height="45"
   inkscape:version="0.92.3 (2405546, 2018-03-11)"><metadata
   id="metadata56"><rdf:RDF><cc:Work
       rdf:about=""><dc:format>image/svg+xml</dc:format><dc:type
         rdf:resource="http://purl.org/dc/dcmitype/StillImage" /><dc:title></dc:title></cc:Work></rdf:RDF></metadata><defs
   id="defs54" /><sodipodi:namedview
   pagecolor="#ffffff"
   bordercolor="#666666"
   borderopacity="1"
   objecttolerance="10"
   gridtolerance="10"
   guidetolerance="10"
   inkscape:pageopacity="0"
   inkscape:pageshadow="2"
   inkscape:window-width="3840"
   inkscape:window-height="2004"
   id="namedview52"
   showgrid="false"
   inkscape:zoom="14.017021"
   inkscape:cx="76"
   inkscape:cy="58.75"
   inkscape:window-x="-16"
   inkscape:window-y="2864"
   inkscape:window-maximized="1"
   inkscape:current-layer="svg50" />
<g
   id="Layer_1"
   transform="translate(0,-72.5)">
	<g
   id="Azure">
	</g>
</g>
<g
   id="paths"
   transform="translate(-53.078324,-35.90164)">
	<g
   id="Access_control">
	</g>
	<g
   id="Azure_active_directory">
	</g>
	<g
   id="API_Management">
	</g>
	<g
   id="Azure_automation">
	</g>
	<g
   id="Azure_SQL_database">
		<g
   id="g46">
			<path
   d="m 68.8,59.1 c 0.1,0.2 0.3,0.3 0.5,0.3 0.2,0.1 0.4,0.1 0.6,0.1 0.2,0 0.4,0 0.5,-0.1 0.2,-0.1 0.3,-0.2 0.5,-0.4 0.1,-0.2 0.2,-0.4 0.3,-0.6 0.1,-0.2 0.1,-0.5 0.1,-0.9 0,-0.3 0,-0.5 -0.1,-0.8 -0.1,-0.3 -0.1,-0.5 -0.3,-0.7 -0.1,-0.2 -0.3,-0.3 -0.4,-0.5 -0.2,-0.1 -0.4,-0.2 -0.6,-0.2 -0.3,0 -0.5,0.1 -0.7,0.2 -0.2,0.1 -0.3,0.3 -0.5,0.4 -0.1,0.2 -0.2,0.4 -0.3,0.6 -0.1,0.2 -0.1,0.5 -0.1,0.8 0,0.4 0,0.7 0.1,0.9 0.2,0.5 0.3,0.7 0.4,0.9 z"
   id="path40"
   inkscape:connector-curvature="0"
   style="fill:#0078d7" />
			<path
   d="m 74.6,66.9 c 0.3,0 0.7,0 1,0.1 1.6,-3.2 4.8,-5.3 8.5,-5.5 V 42.8 c 0,-3 -6.5,-5.9 -14.4,-5.9 -8,0 -14.4,2.7 -14.4,5.7 v 27 c 0,2.7 5.3,5.3 12.2,5.7 -0.1,-0.4 -0.1,-0.8 -0.1,-1.2 0,-3.9 3.2,-7.2 7.2,-7.2 z m 5.2,-5.5 h -5 v -7.7 h 2.3 v 5.9 h 2.7 z M 69.7,39 c 5.7,0 10.3,1.4 10.3,3.1 0,1.7 -4.6,3.1 -10.3,3.1 C 64,45.2 59.4,43.8 59.4,42.1 59.4,40.4 64,39 69.7,39 Z m -4.3,20.6 c 0,0.2 -0.1,0.4 -0.2,0.6 -0.1,0.2 -0.2,0.4 -0.4,0.5 -0.2,0.2 -0.4,0.3 -0.6,0.4 -0.2,0.1 -0.5,0.2 -0.9,0.3 -0.3,0.1 -0.7,0.1 -1.2,0.1 -0.2,0 -0.5,0 -0.7,0 -0.2,0 -0.4,0 -0.6,-0.1 -0.2,0 -0.4,-0.1 -0.5,-0.1 -0.2,0 -0.3,-0.1 -0.4,-0.2 V 59 c 0.1,0.1 0.3,0.2 0.5,0.3 0.2,0.1 0.3,0.2 0.5,0.3 0.2,0.1 0.4,0.1 0.6,0.2 0.2,0.1 0.4,0.1 0.6,0.1 0.2,0 0.3,0 0.4,-0.1 0.1,0 0.2,-0.1 0.2,-0.1 0.1,0 0.1,-0.1 0.1,-0.2 0,-0.1 0,-0.1 0,-0.2 0,-0.1 0,-0.2 -0.1,-0.3 -0.1,-0.1 -0.1,-0.2 -0.2,-0.2 -0.1,-0.1 -0.2,-0.1 -0.4,-0.2 -0.2,-0.1 -0.3,-0.1 -0.5,-0.2 -0.3,-0.1 -0.6,-0.3 -0.9,-0.5 -0.2,-0.2 -0.4,-0.3 -0.6,-0.5 -0.2,-0.2 -0.3,-0.4 -0.3,-0.6 -0.1,-0.2 -0.1,-0.5 -0.1,-0.7 0,-0.4 0.1,-0.7 0.2,-1 0.2,-0.3 0.4,-0.6 0.6,-0.8 0.3,-0.2 0.6,-0.4 1,-0.5 0.4,-0.1 0.8,-0.2 1.3,-0.2 0.3,0 0.5,0 0.7,0 0.2,0 0.4,0 0.6,0.1 0.2,0 0.3,0.1 0.5,0.1 0.1,0 0.3,0.1 0.4,0.1 v 2 c -0.1,-0.1 -0.2,-0.1 -0.4,-0.2 -0.1,-0.1 -0.3,-0.1 -0.5,-0.2 -0.2,-0.1 -0.3,-0.1 -0.5,-0.1 -0.2,0 -0.4,0 -0.6,0 -0.3,0 -0.5,0 -0.6,0.1 -0.2,0.1 -0.2,0.2 -0.2,0.4 0,0.1 0,0.2 0.1,0.2 0,0.1 0.1,0.1 0.2,0.2 0.1,0.1 0.2,0.1 0.3,0.2 0.1,0.1 0.3,0.1 0.5,0.2 0.3,0.1 0.6,0.3 0.9,0.4 0.3,0.2 0.5,0.3 0.7,0.5 0.2,0.2 0.3,0.4 0.5,0.6 0.1,0.2 0.2,0.5 0.2,0.9 -0.2,0.1 -0.2,0.3 -0.2,0.5 z m 0.8,-0.4 c -0.2,-0.5 -0.3,-1 -0.3,-1.6 0,-0.6 0.1,-1.2 0.3,-1.7 0.2,-0.5 0.5,-0.9 0.8,-1.3 0.3,-0.4 0.8,-0.6 1.2,-0.8 0.5,-0.2 1,-0.3 1.6,-0.3 0.6,0 1.1,0.1 1.5,0.3 0.5,0.2 0.9,0.5 1.2,0.8 0.3,0.3 0.6,0.8 0.8,1.2 0.2,0.5 0.3,1 0.3,1.7 0,0.4 0,0.9 -0.2,1.2 -0.1,0.4 -0.3,0.7 -0.5,1 -0.2,0.3 -0.4,0.6 -0.7,0.8 -0.3,0.2 -0.5,0.4 -0.9,0.6 l 2.6,2.2 h -3 l -1.7,-1.8 c -0.5,0 -1,-0.2 -1.4,-0.3 -0.4,-0.2 -0.8,-0.5 -1.1,-0.8 0,-0.3 -0.3,-0.7 -0.5,-1.2 z"
   id="path42"
   inkscape:connector-curvature="0"
   style="fill:#0078d7" />
			<path
   d="m 96.7,76.8 c 0,-1.9 -1.5,-3.5 -3.4,-3.7 0.1,-0.6 0.2,-1.1 0.2,-1.7 0,-4.9 -4,-8.9 -8.9,-8.9 -3.7,0 -7,2.2 -8.3,5.6 -0.5,-0.1 -1,-0.2 -1.6,-0.2 -3.5,0 -6.3,2.8 -6.3,6.3 0,3.4 2.7,6.2 6.2,6.3 h 18.8 0.7 v -0.1 c 1.5,-0.4 2.6,-1.9 2.6,-3.6 z m -3.4,2.7 H 74.7 c -2.9,0 -5.3,-2.4 -5.3,-5.3 0,-2.9 2.4,-5.3 5.3,-5.3 0.6,0 1.2,0.1 1.7,0.3 l 0.5,0.2 0.2,-0.5 c 1.1,-3.2 4.1,-5.4 7.5,-5.4 4.4,0 7.9,3.6 7.9,7.9 0,0.7 -0.1,1.4 -0.3,2.1 l -0.2,0.8 0.7,-0.1 c 0.1,0 0.2,0 0.3,0 1.5,0 2.7,1.2 2.7,2.7 0,1.3 -1,2.5 -2.4,2.6 z"
   id="path44"
   inkscape:connector-curvature="0"
   style="fill:#0078d7" />
		</g>
	</g>
</g>
</svg>