<?xml version="1.0" encoding="UTF-8" standalone="no"?>
<!-- Generator: Adobe Illustrator 18.1.0, SVG Export Plug-In . SVG Version: 6.00 Build 0)  -->

<svg
   xmlns:dc="http://purl.org/dc/elements/1.1/"
   xmlns:cc="http://creativecommons.org/ns#"
   xmlns:rdf="http://www.w3.org/1999/02/22-rdf-syntax-ns#"
   xmlns:svg="http://www.w3.org/2000/svg"
   xmlns="http://www.w3.org/2000/svg"
   xmlns:sodipodi="http://sodipodi.sourceforge.net/DTD/sodipodi-0.dtd"
   xmlns:inkscape="http://www.inkscape.org/namespaces/inkscape"
   version="1.0"
   x="0px"
   y="0px"
   viewBox="0 0 43 43"
   enable-background="new 0 0 152 117.5"
   xml:space="preserve"
   id="svg420"
   sodipodi:docname="Azure Scheduler.svg"
   width="43"
   height="43"
   inkscape:version="0.92.3 (2405546, 2018-03-11)"><metadata
   id="metadata426"><rdf:RDF><cc:Work
       rdf:about=""><dc:format>image/svg+xml</dc:format><dc:type
         rdf:resource="http://purl.org/dc/dcmitype/StillImage" /><dc:title></dc:title></cc:Work></rdf:RDF></metadata><defs
   id="defs424" /><sodipodi:namedview
   pagecolor="#ffffff"
   bordercolor="#666666"
   borderopacity="1"
   objecttolerance="10"
   gridtolerance="10"
   guidetolerance="10"
   inkscape:pageopacity="0"
   inkscape:pageshadow="2"
   inkscape:window-width="3840"
   inkscape:window-height="2004"
   id="namedview422"
   showgrid="false"
   inkscape:zoom="28.034043"
   inkscape:cx="32.796411"
   inkscape:cy="23.786434"
   inkscape:window-x="-16"
   inkscape:window-y="2864"
   inkscape:window-maximized="1"
   inkscape:current-layer="svg420" />
<g
   id="Layer_1"
   transform="translate(-59.490983,-37.200002)">
	<g
   id="Azure">
	</g>
	<g
   id="BizTalk_Services"
   transform="translate(37.3575,-2500.2)">
	</g>
	<g
   id="Key_Vault">
	</g>
	<g
   id="Mobile_Engagement">
	</g>
	<g
   id="Office_subscription">
		<g
   id="Office_subscription_1_">
		</g>
	</g>
</g>
<g
   id="paths"
   transform="translate(-54.818093,-37.52104)">
	<g
   id="Access_control">
	</g>
	<g
   id="Azure_active_directory">
	</g>
	<g
   id="API_Management">
	</g>
	<g
   id="Azure_automation">
	</g>
	<g
   id="Azure_SQL_database">
	</g>
	<g
   id="Azure_subscription">
	</g>
	<g
   id="Backup_service">
	</g>
	<g
   id="Bitbucket_code_source">
	</g>
	<g
   id="Azure_cache">
	</g>
	<g
   id="Content_delivery_network__x28_CDN_x29_">
	</g>
	<g
   id="Cloud_service">
	</g>
	<g
   id="CodePlex">
	</g>
	<g
   id="Dropbox_code_source">
	</g>
	<g
   id="Express_route">
	</g>
	<g
   id="Git_repository">
	</g>
	<g
   id="GitHub_code">
	</g>
	<g
   id="HD_Insight">
	</g>
	<g
   id="Health_monitoring">
	</g>
	<g
   id="Healthy">
	</g>
	<g
   id="BizTalk_hybrid_connection">
	</g>
	<g
   id="Hybrid_connection_manager_for_BizTalk_hybrid_connection">
	</g>
	<g
   id="Hyper-V_recovery_manager">
	</g>
	<g
   id="Machine_learning">
	</g>
	<g
   id="Media_services">
	</g>
	<g
   id="Microsoft_account">
	</g>
	<g
   id="Mobile_services">
	</g>
	<g
   id="Multi-factor_authentication">
	</g>
	<g
   id="MySQL_database">
	</g>
	<g
   id="Notification_hub">
	</g>
	<g
   id="Notification_topic">
	</g>
	<g
   id="Cloud_Office_365">
	</g>
	<g
   id="Office_365">
	</g>
	<g
   id="OS_image">
	</g>
	<g
   id="Remote_app">
	</g>
	<g
   id="Task_scheduler">
		<g
   id="g415">
			<path
   d="m 77.4,67.5 v 1.5 2.4 c -0.3,0 -1.5,-0.2 -1.7,-0.3 C 74.9,70.9 74.1,70.7 73.3,70.4 73,70.3 72.8,70.2 72.6,70.1 L 72.2,70 71.8,69.8 71.5,69.6 71.1,69.4 C 70.9,69.3 70.6,69.1 70.4,69 69.5,68.4 68.6,67.7 67.8,66.9 67,66.1 66.3,65.2 65.7,64.2 c -0.6,-1 -1.1,-2 -1.6,-3.1 -0.8,-2.2 -1.2,-4.5 -1,-6.8 0.2,-2.3 0.8,-4.6 1.9,-6.5 1.1,-2 2.5,-3.7 4.2,-5 0.8,-0.7 1.7,-1.2 2.6,-1.7 0.9,-0.5 1.8,-0.8 2.6,-1.1 1.8,-0.6 3.5,-0.9 5,-0.9 1.5,-0.1 2.9,0.1 4,0.3 1.1,0.2 1.9,0.5 2.5,0.7 0.3,0.1 0.5,0.2 0.7,0.2 l 0.2,0.1 v 0 c 0.1,0 0.2,0 0.3,-0.1 0.1,-0.1 0,-0.2 -0.1,-0.3 l -0.2,-0.1 c -0.1,-0.1 -0.4,-0.2 -0.6,-0.3 -0.6,-0.3 -1.4,-0.7 -2.5,-1 -1.1,-0.4 -2.5,-0.7 -4.2,-0.8 -1.6,-0.1 -3.5,0 -5.6,0.5 -2,0.5 -4.1,1.4 -6.1,2.7 -2,1.3 -3.8,3.2 -5.2,5.4 -1.4,2.2 -2.4,4.8 -2.9,7.6 -0.2,1.4 -0.3,2.8 -0.1,4.3 0.1,1.4 0.4,2.9 0.8,4.2 0.4,1.4 1,2.7 1.8,4 0.7,1.2 1.6,2.4 2.6,3.5 1,1 2.1,2 3.3,2.7 0.3,0.2 0.6,0.4 0.9,0.6 l 0.5,0.3 0.5,0.3 0.4,0.2 0.5,0.2 c 0.3,0.1 0.6,0.3 0.9,0.4 1.3,0.5 2.7,0.9 4,1.1 0.5,0.1 1.2,0.1 1.7,0.2 v 4.2 L 83.4,74 Z"
   id="path411"
   inkscape:connector-curvature="0"
   style="fill:#0078d7" />
			<path
   d="m 79.2,41.8 c -7.3,0 -12.9,5.9 -12.9,13.2 0,6.1 4,11.2 9.6,12.7 v -1.1 c 0,-0.5 0.4,-1 0.9,-1.2 0.2,-0.1 -0.2,0 0,0 0.3,0 0.7,0 0.9,0.3 l 2.5,2.5 C 87.1,67.7 92.5,62 92.5,55 c 0,-7.3 -6,-13.2 -13.3,-13.2 z m -9.8,14.3 c -0.6,0 -1.2,-0.5 -1.2,-1.2 0,-0.6 0.5,-1.2 1.2,-1.2 0.6,0 1.2,0.5 1.2,1.2 -0.1,0.7 -0.6,1.2 -1.2,1.2 z m 9.8,-12.8 c 0.6,0 1.2,0.5 1.2,1.2 0,0.6 -0.5,1.2 -1.2,1.2 -0.6,0 -1.2,-0.5 -1.2,-1.2 0.1,-0.6 0.6,-1.2 1.2,-1.2 z m 6.9,18.4 -0.1,0.1 c -0.8,0.8 -2.2,0.8 -3,0 l -5.4,-5.4 c -0.5,-0.5 -0.2,-1.1 -0.2,-1.7 v -0.1 -4.9 c 0,-1.2 1,-2.1 2.1,-2.1 h 0.4 c 1.2,0 2.1,1 2.1,2.1 V 54 l 4.7,4.7 c 0.9,0.8 0.3,2.2 -0.6,3 z m 3.6,-5.6 c -0.6,0 -1.2,-0.5 -1.2,-1.2 0,-0.6 0.5,-1.2 1.2,-1.2 0.6,0 1.2,0.5 1.2,1.2 0,0.7 -0.5,1.2 -1.2,1.2 z"
   id="path413"
   inkscape:connector-curvature="0"
   style="fill:#0078d7" />
		</g>
	</g>
</g>
<g
   id="Layer_57"
   transform="translate(-59.490983,-37.200002)">
</g>
</svg>