<?xml version="1.0" encoding="UTF-8" standalone="no"?>
<!-- Generator: Adobe Illustrator 18.1.0, SVG Export Plug-In . SVG Version: 6.00 Build 0)  -->

<svg
   xmlns:dc="http://purl.org/dc/elements/1.1/"
   xmlns:cc="http://creativecommons.org/ns#"
   xmlns:rdf="http://www.w3.org/1999/02/22-rdf-syntax-ns#"
   xmlns:svg="http://www.w3.org/2000/svg"
   xmlns="http://www.w3.org/2000/svg"
   xmlns:sodipodi="http://sodipodi.sourceforge.net/DTD/sodipodi-0.dtd"
   xmlns:inkscape="http://www.inkscape.org/namespaces/inkscape"
   version="1.0"
   x="0px"
   y="0px"
   viewBox="0 0 51 50.999999"
   enable-background="new 0 0 152 117.5"
   xml:space="preserve"
   id="svg275"
   sodipodi:docname="Azure Storage.svg"
   width="51"
   height="51"
   inkscape:version="0.92.3 (2405546, 2018-03-11)"><metadata
   id="metadata281"><rdf:RDF><cc:Work
       rdf:about=""><dc:format>image/svg+xml</dc:format><dc:type
         rdf:resource="http://purl.org/dc/dcmitype/StillImage" /><dc:title></dc:title></cc:Work></rdf:RDF></metadata><defs
   id="defs279" /><sodipodi:namedview
   pagecolor="#ffffff"
   bordercolor="#666666"
   borderopacity="1"
   objecttolerance="10"
   gridtolerance="10"
   guidetolerance="10"
   inkscape:pageopacity="0"
   inkscape:pageshadow="2"
   inkscape:window-width="1536"
   inkscape:window-height="801"
   id="namedview277"
   showgrid="false"
   inkscape:zoom="5.1234043"
   inkscape:cx="25.2"
   inkscape:cy="21.55"
   inkscape:window-x="-8"
   inkscape:window-y="1192"
   inkscape:window-maximized="1"
   inkscape:current-layer="svg275" />
<g
   id="Layer_1"
   transform="translate(-50.8,-29.299998)">
	<g
   id="Azure">
	</g>
	<g
   id="BizTalk_Services"
   transform="translate(37.3575,-2500.2)">
	</g>
	<g
   id="Key_Vault">
	</g>
	<g
   id="Mobile_Engagement">
	</g>
	<g
   id="Office_subscription">
		<g
   id="Office_subscription_1_">
		</g>
	</g>
</g>
<g
   id="paths"
   transform="translate(-50.4,-33.25)">
	<g
   id="Access_control">
	</g>
	<g
   id="Azure_active_directory">
	</g>
	<g
   id="API_Management">
	</g>
	<g
   id="Azure_automation">
	</g>
	<g
   id="Azure_SQL_database">
	</g>
	<g
   id="Azure_subscription">
	</g>
	<g
   id="Backup_service">
	</g>
	<g
   id="Bitbucket_code_source">
	</g>
	<g
   id="Azure_cache">
	</g>
	<g
   id="Content_delivery_network__x28_CDN_x29_">
	</g>
	<g
   id="Cloud_service">
	</g>
	<g
   id="CodePlex">
	</g>
	<g
   id="Dropbox_code_source">
	</g>
	<g
   id="Express_route">
	</g>
	<g
   id="Git_repository">
	</g>
	<g
   id="GitHub_code">
	</g>
	<g
   id="HD_Insight">
	</g>
	<g
   id="Health_monitoring">
	</g>
	<g
   id="Healthy">
	</g>
	<g
   id="BizTalk_hybrid_connection">
	</g>
	<g
   id="Hybrid_connection_manager_for_BizTalk_hybrid_connection">
	</g>
	<g
   id="Hyper-V_recovery_manager">
	</g>
	<g
   id="Machine_learning">
	</g>
	<g
   id="Media_services">
	</g>
	<g
   id="Microsoft_account">
	</g>
	<g
   id="Mobile_services">
	</g>
	<g
   id="Multi-factor_authentication">
	</g>
	<g
   id="MySQL_database">
	</g>
	<g
   id="Notification_hub">
	</g>
	<g
   id="Notification_topic">
	</g>
	<g
   id="Cloud_Office_365">
	</g>
	<g
   id="Office_365">
	</g>
	<g
   id="OS_image">
	</g>
	<g
   id="Remote_app">
	</g>
	<g
   id="Task_scheduler">
	</g>
	<g
   id="Azure_SDK">
	</g>
	<g
   id="Service_bus">
	</g>
	<g
   id="Service_bus_queue">
	</g>
	<g
   id="Service_bus_relay">
	</g>
	<g
   id="Service_bus_topic">
	</g>
	<g
   id="Service_endpoint">
	</g>
	<g
   id="Custom_create">
	</g>
	<g
   id="SQL_data_sync">
	</g>
	<g
   id="SQL_reporting">
	</g>
	<g
   id="Startup_task">
	</g>
	<g
   id="Windows_Azure_storage">
		<path
   d="M 93.6,54.1 H 90.3 V 38.7 c 0,-0.8 -0.7,-1.5 -1.5,-1.5 H 52.3 c -0.8,0 -1.5,0.7 -1.5,1.5 v 30.7 c 0,0.8 0.7,1.5 1.5,1.5 H 73 l 5.4,9.4 H 93.5 L 101,67.2 Z M 80.1,46 h 7.3 v 4.4 h -7.3 z m 7.3,5.9 v 2.2 H 80.1 V 51.9 Z M 71.3,46 h 7.3 v 4.4 h -7.3 z m 0,5.9 h 7.3 v 2.2 h -0.2 l -1.3,2.2 h -5.9 v -4.4 z m 0,5.8 h 5 l -2.5,4.4 h -2.5 z m 1.7,5.8 -1.7,2.9 v -2.9 z m -11.9,4.4 h -7.3 v -4.4 h 7.3 z m 0,-5.8 h -7.3 v -4.4 h 7.3 z m 0,-5.9 h -7.3 v -4.4 h 7.3 z m 0,-5.8 H 53.8 V 46 h 7.3 z m 8.8,17.5 h -7.3 v -4.4 h 7.3 z m 0,-5.8 h -7.3 v -4.4 h 7.3 z m 0,-5.9 h -7.3 v -4.4 h 7.3 z m 0,-5.8 H 62.6 V 46 h 7.3 z m 1.4,17.5 v -0.1 z"
   id="path268"
   inkscape:connector-curvature="0"
   style="fill:#0078d7" />
	</g>
</g>
<g
   id="Layer_57"
   transform="translate(-50.8,-29.299998)">
</g>
<g
   id="Ibiza_Symbols"
   transform="translate(-50.8,-29.299998)">
	<g
   id="SQL_Database_Premium">
	</g>
</g>
</svg>