<?xml version="1.0" encoding="UTF-8" standalone="no"?>
<!-- Generator: Adobe Illustrator 18.1.0, SVG Export Plug-In . SVG Version: 6.00 Build 0)  -->

<svg
   xmlns:dc="http://purl.org/dc/elements/1.1/"
   xmlns:cc="http://creativecommons.org/ns#"
   xmlns:rdf="http://www.w3.org/1999/02/22-rdf-syntax-ns#"
   xmlns:svg="http://www.w3.org/2000/svg"
   xmlns="http://www.w3.org/2000/svg"
   xmlns:sodipodi="http://sodipodi.sourceforge.net/DTD/sodipodi-0.dtd"
   xmlns:inkscape="http://www.inkscape.org/namespaces/inkscape"
   version="1.0"
   x="0px"
   y="0px"
   viewBox="0 0 50 50"
   enable-background="new 0 0 152 117.5"
   xml:space="preserve"
   id="svg354"
   sodipodi:docname="Azure API Management.svg"
   width="50"
   height="50"
   inkscape:version="0.92.3 (2405546, 2018-03-11)"><metadata
   id="metadata360"><rdf:RDF><cc:Work
       rdf:about=""><dc:format>image/svg+xml</dc:format><dc:type
         rdf:resource="http://purl.org/dc/dcmitype/StillImage" /><dc:title></dc:title></cc:Work></rdf:RDF></metadata><defs
   id="defs358" /><sodipodi:namedview
   pagecolor="#ffffff"
   bordercolor="#666666"
   borderopacity="1"
   objecttolerance="10"
   gridtolerance="10"
   guidetolerance="10"
   inkscape:pageopacity="0"
   inkscape:pageshadow="2"
   inkscape:window-width="3840"
   inkscape:window-height="2004"
   id="namedview356"
   showgrid="false"
   inkscape:zoom="28.034043"
   inkscape:cx="15.806257"
   inkscape:cy="24.865594"
   inkscape:window-x="-16"
   inkscape:window-y="2864"
   inkscape:window-maximized="1"
   inkscape:current-layer="svg354" />
<g
   id="Layer_1"
   transform="translate(-50.8,-29.499999)">
</g>
<g
   id="paths"
   transform="translate(-50.01524,-33.530813)">
	<g
   id="Access_control">
	</g>
	<g
   id="Azure_active_directory">
	</g>
	<g
   id="API_Management">
		<path
   d="m 93.6,55.9 c 0.1,-0.7 0.1,-1.7 0.1,-2.4 0,-8.5 -7,-15.8 -15.5,-15.8 h -0.1 c -6.1,0 -11.6,3.9 -14.1,9.4 -0.7,-0.1 -1.4,0 -2.1,0 -6.2,0 -11.1,5.1 -11.1,11.2 0,6.1 5,11.1 11.2,11.1 h 5.7 c 0.2,0.8 0.7,1.5 1.3,2.1 2,2 5.3,2 7.3,0 2,-2 2,-5.2 0,-7.2 -2,-2 -5.2,-2 -7.3,0 -0.5,0.5 -0.9,0.9 -1.1,1.6 0,0 -5.8,-0.2 -5.8,-0.2 v 0 c -4.3,0 -7.7,-3.2 -7.8,-7.5 0,-4.3 3.5,-7.7 7.8,-7.7 0.8,0 1.7,0.2 2.5,0.5 l 1.6,0.6 0.5,-1.6 c 1.6,-5 6.3,-8.3 11.5,-8.3 6.7,0 12.1,5.4 12.1,12.1 0,1.1 -0.1,2.2 -0.4,3.2 l -0.7,2.4 2.5,-0.3 c 0.2,0 0.3,0 0.4,0 1.9,0 3.5,1.6 3.5,3.5 0,1.8 -1.3,3.3 -3.1,3.5 0,0 -8.3,0.1 -8.8,0.1 -0.4,-2.3 -1.5,-4.5 -3.2,-6.2 -2.1,-2.2 -5,-3.4 -8.1,-3.4 -2.1,0 -4.1,0.6 -5.9,1.6 l 1.8,2.9 c 1.2,-0.8 2.7,-1.2 4.2,-1.2 2.1,0 4.2,0.8 5.7,2.4 1.5,1.5 2.4,3.5 2.4,5.7 0,2.1 -0.8,4.2 -2.4,5.7 -1.5,1.5 -3.5,2.4 -5.7,2.4 -1.5,0 -3,-0.4 -4.2,-1.2 l -1.8,2.9 c 1.8,1.1 3.9,1.7 6,1.7 3.1,0 5.9,-1.2 8.1,-3.4 1.8,-1.8 2.9,-4.1 3.2,-6.5 0.4,0 8.8,-0.1 8.8,-0.1 h 0.1 c 3.6,-0.3 6.3,-3.3 6.3,-6.9 0.1,-3.3 -2.2,-6.1 -5.4,-6.7 z"
   id="path350"
   inkscape:connector-curvature="0"
   style="fill:#0078d7" />
	</g>
</g>
</svg>