<?xml version="1.0" standalone="no"?>
<!DOCTYPE svg PUBLIC "-//W3C//DTD SVG 20010904//EN"
 "http://www.w3.org/TR/2001/REC-SVG-20010904/DTD/svg10.dtd">
<svg version="1.0" xmlns="http://www.w3.org/2000/svg"
 width="1018.000000pt" height="1018.000000pt" viewBox="0 0 1018.000000 1018.000000"
 preserveAspectRatio="xMidYMid meet">
<metadata>
Created by potrace 1.11, written by Peter Selinger 2001-2013
</metadata>
<g transform="translate(0.000000,1018.000000) scale(0.100000,-0.100000)"
fill="#000000" stroke="none">
<path d="M40 6128 c-1 -2229 -1 -4122 0 -4206 1 -112 -3 -158 -12 -170 -10
-12 -10 -14 -1 -8 18 10 18 -294 1 -313 -10 -11 -10 -13 -1 -7 10 6 13 -139
13 -708 0 -471 3 -716 10 -716 7 0 10 1703 10 5090 0 3387 -3 5090 -10 5090
-7 0 -10 -1358 -10 -4052z"/>
<path d="M3564 8789 c-222 -29 -429 -162 -541 -351 -43 -72 -2528 -6526 -2544
-6606 -16 -85 -7 -220 22 -306 30 -91 111 -209 182 -267 79 -64 142 -96 233
-119 76 -20 119 -20 2556 -20 l2478 0 0 -331 c0 -311 1 -331 18 -324 25 9
2155 1236 2169 1249 9 8 -268 173 -1078 641 -599 347 -1094 632 -1099 633 -6
2 -10 -114 -10 -327 l0 -331 -1995 0 -1995 0 9 23 c5 12 545 1417 1201 3122
656 1705 1201 3129 1212 3165 10 35 18 86 18 112 l0 48 -387 -1 c-214 -1 -416
-5 -449 -10z"/>
<path d="M5390 8788 c-76 -22 -204 -180 -370 -458 -347 -581 -918 -1876 -1625
-3685 -219 -561 -524 -1365 -660 -1741 l-34 -94 134 0 c235 0 734 47 1056 100
1836 303 3254 1045 4172 2182 746 924 1150 2140 1169 3523 l3 180 -1905 2
c-1243 1 -1917 -2 -1940 -9z m2685 -1105 c-37 -258 -174 -722 -302 -1021 -124
-291 -344 -661 -529 -891 -170 -211 -427 -465 -654 -646 -438 -350 -1017 -651
-1671 -869 -205 -68 -577 -172 -586 -163 -5 5 377 966 585 1472 352 857 755
1743 952 2093 l41 72 1085 0 1086 0 -7 -47z"/>
</g>
</svg>
