<?xml version="1.0" encoding="UTF-8" standalone="no"?>
<!-- Generator: Adobe Illustrator 21.0.0, SVG Export Plug-In . SVG Version: 6.00 Build 0)  -->

<svg
   xmlns:dc="http://purl.org/dc/elements/1.1/"
   xmlns:cc="http://creativecommons.org/ns#"
   xmlns:rdf="http://www.w3.org/1999/02/22-rdf-syntax-ns#"
   xmlns:svg="http://www.w3.org/2000/svg"
   xmlns="http://www.w3.org/2000/svg"
   xmlns:sodipodi="http://sodipodi.sourceforge.net/DTD/sodipodi-0.dtd"
   xmlns:inkscape="http://www.inkscape.org/namespaces/inkscape"
   version="1.1"
   id="Layer_1"
   x="0px"
   y="0px"
   width="49"
   height="49"
   viewBox="0 0 49 49"
   enable-background="new 0 0 50 50"
   xml:space="preserve"
   sodipodi:docname="Azure Batch.svg"
   inkscape:version="0.92.3 (2405546, 2018-03-11)"><metadata
   id="metadata628"><rdf:RDF><cc:Work
       rdf:about=""><dc:format>image/svg+xml</dc:format><dc:type
         rdf:resource="http://purl.org/dc/dcmitype/StillImage" /><dc:title></dc:title></cc:Work></rdf:RDF></metadata><defs
   id="defs626" /><sodipodi:namedview
   pagecolor="#ffffff"
   bordercolor="#666666"
   borderopacity="1"
   objecttolerance="10"
   gridtolerance="10"
   guidetolerance="10"
   inkscape:pageopacity="0"
   inkscape:pageshadow="2"
   inkscape:window-width="3840"
   inkscape:window-height="2004"
   id="namedview624"
   showgrid="false"
   inkscape:zoom="16.47"
   inkscape:cx="29.576359"
   inkscape:cy="34.583033"
   inkscape:window-x="-16"
   inkscape:window-y="2864"
   inkscape:window-maximized="1"
   inkscape:current-layer="Layer_1" />
<g
   id="g621"
   transform="translate(-1.1214329,-0.39647844)">
	<g
   id="g619">
		<path
   d="M 30,3.2 C 30,2.5 29.5,2 28.8,2 H 2.2 C 1.5,2 1,2.5 1,3.2 V 7 h 29 z m -17.296,7.044 c 0.06,-0.062 0.207,-0.194 0.396,-0.194 h 0.186 l 0.967,0.753 0.197,0.194 V 11 H 30 V 8 H 1 V 26.8 C 1,27.5 1.5,28 2.2,28 H 10 V 24.694 L 9.216,25.681 5.918,22.171 5.623,21.877 c -0.198,-0.199 -0.198,-0.455 0,-0.653 L 6.436,20.513 6.597,20.351 H 6.7 c 0.2,0 0.31,0.078 0.341,0.243 L 8.986,22.716 10,21.442 V 16.894 L 9.216,17.881 5.918,14.371 5.623,14.076 c -0.198,-0.199 -0.198,-0.455 0,-0.653 L 6.436,12.711 6.597,12.549 H 6.7 c 0.2,0 0.31,0.078 0.341,0.243 L 8.986,14.914 10,13.641 V 13.2 c 0,-1.218 0.894,-2.137 2.094,-2.19 z M 11,13.2 V 17 H 40 V 13.2 C 40,12.5 39.5,12 38.8,12 H 12.2 C 11.5,12 11,12.5 11,13.2 Z M 48.8,22 H 22.2 C 21.5,22 21,22.5 21,23.2 V 27 H 50 V 23.2 C 50,22.5 49.5,22 48.8,22 Z M 22.704,20.244 c 0.06,-0.062 0.207,-0.194 0.396,-0.194 h 0.186 l 0.967,0.753 0.197,0.194 V 21 H 40 V 18 H 11 v 18.8 c 0,0.7 0.5,1.2 1.2,1.2 H 20 v -3.306 l -0.784,0.987 -3.298,-3.51 -0.295,-0.294 c -0.198,-0.199 -0.198,-0.455 0,-0.653 l 0.813,-0.711 0.161,-0.162 H 16.7 c 0.2,0 0.31,0.078 0.341,0.243 L 18.986,32.716 20,31.442 v -4.548 l -0.784,0.987 -3.298,-3.51 -0.295,-0.295 c -0.198,-0.199 -0.198,-0.455 0,-0.653 l 0.813,-0.712 0.161,-0.162 H 16.7 c 0.2,0 0.31,0.078 0.341,0.243 L 18.986,24.914 20,23.641 V 23.2 c 0,-1.218 0.894,-2.137 2.094,-2.19 z M 21,46.8 c 0,0.7 0.5,1.2 1.2,1.2 H 48.8 C 49.5,48 50,47.5 50,46.8 V 28 H 21 Z M 35,34 h 11 v 2 H 35 Z m 0,8 h 11 v 2 H 35 Z m -9.377,-8.576 0.813,-0.712 0.161,-0.162 H 26.7 c 0.2,0 0.31,0.078 0.341,0.243 l 1.945,2.122 3.718,-4.671 c 0.06,-0.062 0.207,-0.194 0.396,-0.194 h 0.186 l 0.967,0.753 0.197,0.194 v 0.29 l -5.234,6.595 -3.298,-3.51 -0.295,-0.295 c -0.198,-0.199 -0.198,-0.455 0,-0.653 z m 0,7.801 0.813,-0.711 0.161,-0.162 H 26.7 c 0.2,0 0.31,0.078 0.341,0.243 l 1.945,2.122 3.718,-4.671 c 0.06,-0.062 0.207,-0.194 0.396,-0.194 h 0.186 l 0.967,0.752 0.197,0.194 c 0,0 0,0.289 0,0.289 l -5.234,6.595 -3.298,-3.51 -0.295,-0.294 c -0.198,-0.199 -0.198,-0.455 0,-0.653 z"
   id="path617"
   inkscape:connector-curvature="0"
   style="fill:#0072c6" />
	</g>
</g>
</svg>