<?xml version="1.0" encoding="UTF-8" standalone="no"?>
<!-- Generator: Adobe Illustrator 18.1.0, SVG Export Plug-In . SVG Version: 6.00 Build 0)  -->

<svg
   xmlns:dc="http://purl.org/dc/elements/1.1/"
   xmlns:cc="http://creativecommons.org/ns#"
   xmlns:rdf="http://www.w3.org/1999/02/22-rdf-syntax-ns#"
   xmlns:svg="http://www.w3.org/2000/svg"
   xmlns="http://www.w3.org/2000/svg"
   xmlns:sodipodi="http://sodipodi.sourceforge.net/DTD/sodipodi-0.dtd"
   xmlns:inkscape="http://www.inkscape.org/namespaces/inkscape"
   version="1.0"
   x="0px"
   y="0px"
   viewBox="0 0 60 60"
   enable-background="new 0 0 152 117.5"
   xml:space="preserve"
   id="svg208"
   sodipodi:docname="Azure HDInsight.svg"
   width="60"
   height="60"
   inkscape:version="0.92.3 (2405546, 2018-03-11)"><metadata
   id="metadata214"><rdf:RDF><cc:Work
       rdf:about=""><dc:format>image/svg+xml</dc:format><dc:type
         rdf:resource="http://purl.org/dc/dcmitype/StillImage" /><dc:title></dc:title></cc:Work></rdf:RDF></metadata><defs
   id="defs212" /><sodipodi:namedview
   pagecolor="#ffffff"
   bordercolor="#666666"
   borderopacity="1"
   objecttolerance="10"
   gridtolerance="10"
   guidetolerance="10"
   inkscape:pageopacity="0"
   inkscape:pageshadow="2"
   inkscape:window-width="3840"
   inkscape:window-height="2004"
   id="namedview210"
   showgrid="false"
   inkscape:zoom="14.017021"
   inkscape:cx="29.802479"
   inkscape:cy="21.776406"
   inkscape:window-x="-16"
   inkscape:window-y="2864"
   inkscape:window-maximized="1"
   inkscape:current-layer="svg208" />
<g
   id="Layer_1"
   transform="translate(-46.197521,-20.526405)">
	<g
   id="Azure">
	</g>
	<g
   id="BizTalk_Services"
   transform="translate(37.3575,-2500.2)">
	</g>
</g>
<g
   id="paths"
   transform="translate(-45.76947,-28.374007)">
	<g
   id="Access_control">
	</g>
	<g
   id="Azure_active_directory">
	</g>
	<g
   id="API_Management">
	</g>
	<g
   id="Azure_automation">
	</g>
	<g
   id="Azure_SQL_database">
	</g>
	<g
   id="Azure_subscription">
	</g>
	<g
   id="Backup_service">
	</g>
	<g
   id="Bitbucket_code_source">
	</g>
	<g
   id="Azure_cache">
	</g>
	<g
   id="Content_delivery_network__x28_CDN_x29_">
	</g>
	<g
   id="Cloud_service">
	</g>
	<g
   id="CodePlex">
	</g>
	<g
   id="Dropbox_code_source">
	</g>
	<g
   id="Express_route">
	</g>
	<g
   id="Git_repository">
	</g>
	<g
   id="GitHub_code">
	</g>
	<g
   id="HD_Insight">
		<g
   id="g204">
			<path
   d="M 83.6,72.6 C 83.3,71.7 82.3,70 82.3,70 c 0,0 -0.2,2.5 -1.9,5 -1.7,2.5 -2.8,2.9 -2.8,2.9 0,0 -0.1,0.8 0.8,0.9 0.3,0 4.1,0 4.7,0 0.7,0 1.2,-0.6 1.2,-1.3 0,-0.7 -0.6,-1.5 -0.6,-1.5 0,0 0.2,-2.5 -0.1,-3.4 z"
   id="path198"
   inkscape:connector-curvature="0"
   style="fill:#0078d7" />
			<path
   d="m 50.1,66.8 c 0,0 0,0 0,0 0,0 -1.4,1.6 -2.3,2.8 -0.9,1.2 -0.3,2 -0.3,2 0,0 2.5,4.1 4.6,3.5 0.7,-0.2 1.3,-1.3 1.3,-1.3 0,0 -0.9,-1.2 -1.6,-2.7 -0.9,-1.6 -1.6,-3.9 -1.7,-4.3 z"
   id="path200"
   inkscape:connector-curvature="0"
   style="fill:#0078d7" />
			<path
   d="m 105.6,48.9 c -0.3,-7.9 -2.5,-10 -3.1,-10 -0.8,0.1 -1.1,1.4 -2,2 -1.2,0.9 -2,0.7 -2.7,1.4 -0.7,0.7 0.7,2.5 0.5,7.2 -0.2,4.3 -3,5.9 -3,5.9 0,0 1.3,-1.9 1.5,-3.2 0.2,-1 -0.4,-1.2 -0.8,-1.5 -0.8,-0.7 -2.4,1.1 -2.8,1.5 0.7,-0.8 1.8,-1.7 1.4,-2.5 -0.8,-1.3 -2.5,-0.4 -2.9,-0.3 0.4,-0.2 1.2,-0.5 1,-1.3 -0.3,-1.4 -1.7,-1.1 -1.9,-1 0.6,-0.3 0.9,-0.6 2.5,-0.5 0.9,0 0.7,-0.9 0.1,-1.6 -0.9,-1.1 -1.5,-1.5 -2.2,-1.7 -0.8,-0.3 -2.4,-0.1 -2.4,-0.1 0,0 1.1,-0.7 1.7,-0.6 C 89.7,41.5 87.1,37.5 82.6,37.3 74.4,36.9 72,42.2 72,42.2 L 76,42 c 0,0 -1.2,0.5 -3.6,0.9 -1.9,0.3 -1.8,0.3 -2.4,0.4 -0.9,0.2 -3.2,3 -5.3,5.4 -2.2,2.3 -4.3,5.4 -4.3,6.6 0,1.2 1.2,2 1.9,3 0.7,1 0.7,1.7 0.7,1.7 l 2.9,-3.4 -3.4,7 c 0,0 1.6,2.1 3.3,1.9 1.3,-0.2 4.2,-2.5 6,-2.8 1.9,-0.4 2.7,-0.1 2.7,-0.1 0,0 1.3,-3.4 0.7,-5.8 -1.1,-4.3 -0.3,-6.6 0.6,-8 -0.7,5.7 1.2,6.1 1.1,9.8 -0.1,2.8 -1,5.8 -1,5.8 0,0 -2.7,-0.9 -4.8,0.2 -2.1,1.1 -3.9,2.6 -5.9,2.6 -2.1,0 -4.9,-3.6 -4.9,-3.6 l 1.5,-2.2 c 0,0 -0.2,-0.7 -0.8,-1.4 -0.9,-1.1 -2.4,-2.7 -2.5,-4 -0.1,-2.2 2.1,-4.6 2.9,-5.5 0.8,-1 3.2,-3.6 3.2,-3.6 0,0 -7,1 -9.9,4.4 -3.5,4.2 -4,5.4 -5.3,5.6 -1.3,0.2 -1.8,-1.2 -1.8,-1.2 0,0 1,-0.1 0.9,-1.3 -0.2,-1.9 0.3,-3 0.3,-3 0,0 -2.1,1.3 -2.5,2.6 -0.4,1.4 0.5,1.7 0.5,1.7 0,0 0,2.4 1.4,2.9 1.4,0.6 2.5,0.1 2.5,0.1 0,0 -0.9,4.4 0.3,7.6 1.2,3.2 3.6,6.7 3.6,6.7 0,0 -0.2,2.4 -0.5,3 -0.2,0.6 -1.1,2 0.3,3 1.4,1 4.9,1.4 5.7,0.9 0.8,-0.5 0.6,-1.9 0.7,-2.4 0.1,-0.5 1.2,-2.5 1.4,-3 0.1,-0.6 0.1,-3.6 -0.1,-4.6 0.2,0.5 1.1,2.8 4.4,2.9 3,0.1 4,-1.5 4,-2.6 0,0.5 0.2,2.7 -0.1,3.1 -0.3,0.4 -1.2,0.7 -2.1,1.2 -0.9,0.6 -2.1,1.2 -0.1,3.6 2.2,2.8 2.6,3 4.5,1.5 1.9,-1.5 3.9,-2.9 5.3,-4.7 1.4,-1.8 3.9,-8.4 3.9,-8.4 0,0 -1.5,-1 -2.5,-2.3 -0.7,-1 -0.9,-1.6 -0.9,-1.6 0,0 2,2 4.1,2.5 0.8,0.9 2.1,2.2 3.2,2.6 4.1,1.7 5.4,-3.4 5.4,-3.4 L 91,64.1 c 0,0 -1.1,2.6 -2.9,2.4 -3.6,-0.4 -2.5,-7.8 -2.5,-7.8 0,0 3.6,5.2 10.9,5 4.4,0 9.5,-5.3 9.1,-14.8 z M 80.2,48.5 c 0,0 0.3,-3.4 1,-3.9 0.9,-0.6 3.3,0.2 3.3,0.2 0,0 -1.5,0 -2.4,0.8 -0.8,0.7 -1.9,2.9 -1.9,2.9 z m 5.9,3 c -1.1,0.9 -2.1,2 -2.1,2 0,0 0.2,-0.5 0.4,-0.8 0.2,-0.3 0.5,-0.8 0.5,-0.8 0,0 -0.4,-0.1 -0.9,-0.6 -0.3,-0.3 -0.4,-0.6 -0.5,-0.8 0,0 -0.2,0.1 -0.5,0.4 -0.3,0.2 -0.7,0.7 -0.7,0.7 0,0 1,-1.9 2.4,-2.9 1.5,-1 3,-1 3,-1 0,0 -0.2,0 -0.7,0.3 -0.5,0.2 -0.5,0.3 -0.5,0.3 0,0 0.5,0.2 0.9,0.6 0.4,0.5 0.5,1.1 0.5,1.1 0,0 0.1,0 0.6,-0.2 0.5,-0.2 1,-0.2 1,-0.2 0,0 -1.9,0.7 -3.4,1.9 z m 15.1,-8.9 c -1.2,0.9 -2.5,1 -2.6,0.6 -0.2,-0.4 0.1,-0.4 0.1,-0.4 0,0 1.3,-0.5 2,-1 0.9,-0.7 1.7,-2.3 2,-1.9 0.2,0.4 -0.6,2 -1.5,2.7 z"
   id="path202"
   inkscape:connector-curvature="0"
   style="fill:#0078d7" />
		</g>
	</g>
</g>
</svg>