<?xml version="1.0" encoding="UTF-8" standalone="no"?>
<!-- Generator: Adobe Illustrator 18.1.0, SVG Export Plug-In . SVG Version: 6.00 Build 0)  -->

<svg
   xmlns:dc="http://purl.org/dc/elements/1.1/"
   xmlns:cc="http://creativecommons.org/ns#"
   xmlns:rdf="http://www.w3.org/1999/02/22-rdf-syntax-ns#"
   xmlns:svg="http://www.w3.org/2000/svg"
   xmlns="http://www.w3.org/2000/svg"
   xmlns:sodipodi="http://sodipodi.sourceforge.net/DTD/sodipodi-0.dtd"
   xmlns:inkscape="http://www.inkscape.org/namespaces/inkscape"
   version="1.0"
   x="0px"
   y="0px"
   viewBox="0 0 39 39"
   enable-background="new 0 0 152 117.5"
   xml:space="preserve"
   id="svg84"
   sodipodi:docname="Azure Storage - Queue.svg"
   width="39"
   height="39"
   inkscape:version="0.92.3 (2405546, 2018-03-11)"><metadata
   id="metadata90"><rdf:RDF><cc:Work
       rdf:about=""><dc:format>image/svg+xml</dc:format><dc:type
         rdf:resource="http://purl.org/dc/dcmitype/StillImage" /><dc:title></dc:title></cc:Work></rdf:RDF></metadata><defs
   id="defs88" /><sodipodi:namedview
   pagecolor="#ffffff"
   bordercolor="#666666"
   borderopacity="1"
   objecttolerance="10"
   gridtolerance="10"
   guidetolerance="10"
   inkscape:pageopacity="0"
   inkscape:pageshadow="2"
   inkscape:window-width="1536"
   inkscape:window-height="801"
   id="namedview86"
   showgrid="false"
   inkscape:zoom="5.1234043"
   inkscape:cx="19"
   inkscape:cy="16.35"
   inkscape:window-x="-8"
   inkscape:window-y="1192"
   inkscape:window-maximized="1"
   inkscape:current-layer="svg84" />
<g
   id="Layer_1"
   transform="translate(-57,-36.099999)">
	<g
   id="Azure">
	</g>
	<g
   id="BizTalk_Services"
   transform="translate(37.3575,-2500.2)">
	</g>
	<g
   id="Key_Vault">
	</g>
	<g
   id="Mobile_Engagement">
	</g>
	<g
   id="Office_subscription">
		<g
   id="Office_subscription_1_">
		</g>
	</g>
</g>
<g
   id="paths"
   transform="translate(-56.45,-39.2)">
	<g
   id="Access_control">
	</g>
	<g
   id="Azure_active_directory">
	</g>
	<g
   id="API_Management">
	</g>
	<g
   id="Azure_automation">
	</g>
	<g
   id="Azure_SQL_database">
	</g>
	<g
   id="Azure_subscription">
	</g>
	<g
   id="Backup_service">
	</g>
	<g
   id="Bitbucket_code_source">
	</g>
	<g
   id="Azure_cache">
	</g>
	<g
   id="Content_delivery_network__x28_CDN_x29_">
	</g>
	<g
   id="Cloud_service">
	</g>
	<g
   id="CodePlex">
	</g>
	<g
   id="Dropbox_code_source">
	</g>
	<g
   id="Express_route">
	</g>
	<g
   id="Git_repository">
	</g>
	<g
   id="GitHub_code">
	</g>
	<g
   id="HD_Insight">
	</g>
	<g
   id="Health_monitoring">
	</g>
	<g
   id="Healthy">
	</g>
	<g
   id="BizTalk_hybrid_connection">
	</g>
	<g
   id="Hybrid_connection_manager_for_BizTalk_hybrid_connection">
	</g>
	<g
   id="Hyper-V_recovery_manager">
	</g>
	<g
   id="Machine_learning">
	</g>
	<g
   id="Media_services">
	</g>
	<g
   id="Microsoft_account">
	</g>
	<g
   id="Mobile_services">
	</g>
	<g
   id="Multi-factor_authentication">
	</g>
	<g
   id="MySQL_database">
	</g>
	<g
   id="Notification_hub">
	</g>
	<g
   id="Notification_topic">
	</g>
	<g
   id="Cloud_Office_365">
	</g>
	<g
   id="Office_365">
	</g>
	<g
   id="OS_image">
	</g>
	<g
   id="Remote_app">
	</g>
	<g
   id="Task_scheduler">
	</g>
	<g
   id="Azure_SDK">
	</g>
	<g
   id="Service_bus">
	</g>
	<g
   id="Service_bus_queue">
	</g>
	<g
   id="Service_bus_relay">
	</g>
	<g
   id="Service_bus_topic">
	</g>
	<g
   id="Service_endpoint">
	</g>
	<g
   id="Custom_create">
	</g>
	<g
   id="SQL_data_sync">
	</g>
	<g
   id="SQL_reporting">
	</g>
	<g
   id="Startup_task">
	</g>
	<g
   id="Windows_Azure_storage">
	</g>
	<g
   id="Storage_blob">
	</g>
	<g
   id="Storage_table">
	</g>
	<g
   id="Storage_queue">
		<g
   id="g77">
			<polygon
   points="82.4,59.7 86.5,56.5 78.3,56.5 "
   id="polygon65"
   style="fill:#0078d7" />
			<path
   d="m 69.9,60.8 c -0.1,0 -0.2,0 -0.3,-0.1 l -3.8,-3 v 4.9 h 8.7 v -5 l -4.1,3.1 c -0.2,0.1 -0.4,0.1 -0.5,0.1 z"
   id="path67"
   inkscape:connector-curvature="0"
   style="fill:#0078d7" />
			<path
   d="m 82.4,60.8 c -0.1,0 -0.3,0 -0.3,-0.1 l -3.9,-3 v 4.9 h 8.7 v -5 l -4.1,3.1 c -0.2,0.1 -0.3,0.1 -0.4,0.1 z"
   id="path69"
   inkscape:connector-curvature="0"
   style="fill:#0078d7" />
			<path
   d="m 85.5,42.3 h -19 L 57,58.7 66.5,75.1 h 18.9 l 9.5,-16.4 z m 3.3,23.4 H 62.9 c -0.8,0 -1.4,-0.7 -1.4,-1.5 v -9.9 c 0,-0.8 0.6,-1.5 1.4,-1.5 h 25.9 c 0.3,0 0.8,0 4.2,6.4 l 0.1,0.3 -0.1,0.3 c -3.4,5.9 -3.9,5.9 -4.2,5.9 z"
   id="path71"
   inkscape:connector-curvature="0"
   style="fill:#0078d7" />
			<polygon
   points="69.8,59.7 74,56.5 65.7,56.5 "
   id="polygon73"
   style="fill:#0078d7" />
			<path
   d="m 62.9,53.9 c -0.2,0 -0.4,0.2 -0.4,0.4 v 9.9 c 0,0.2 0.2,0.5 0.4,0.5 h 25.7 c 0.5,-0.5 2,-2.9 3.3,-5.2 C 90.6,57 89,54.4 88.6,53.9 Z m 12.6,9.2 c 0,0.3 -0.3,0.6 -0.7,0.6 H 65 c -0.3,0 -0.4,-0.3 -0.4,-0.6 v -7.3 c 0,-0.3 0.1,-0.4 0.4,-0.4 h 9.8 c 0.3,0 0.7,0.1 0.7,0.4 z m 12.3,0 c 0,0.3 -0.2,0.6 -0.5,0.6 h -9.7 c -0.3,0 -0.5,-0.3 -0.5,-0.6 v -7.3 c 0,-0.3 0.2,-0.4 0.5,-0.4 h 9.7 c 0.3,0 0.5,0.1 0.5,0.4 z"
   id="path75"
   inkscape:connector-curvature="0"
   style="fill:#0078d7" />
		</g>
	</g>
</g>
<g
   id="Layer_57"
   transform="translate(-57,-36.099999)">
</g>
<g
   id="Ibiza_Symbols"
   transform="translate(-57,-36.099999)">
	<g
   id="SQL_Database_Premium">
	</g>
</g>
</svg>