<?xml version="1.0" encoding="UTF-8" standalone="no"?>
<!-- Generator: Adobe Illustrator 18.1.0, SVG Export Plug-In . SVG Version: 6.00 Build 0)  -->

<svg
   xmlns:dc="http://purl.org/dc/elements/1.1/"
   xmlns:cc="http://creativecommons.org/ns#"
   xmlns:rdf="http://www.w3.org/1999/02/22-rdf-syntax-ns#"
   xmlns:svg="http://www.w3.org/2000/svg"
   xmlns="http://www.w3.org/2000/svg"
   xmlns:sodipodi="http://sodipodi.sourceforge.net/DTD/sodipodi-0.dtd"
   xmlns:inkscape="http://www.inkscape.org/namespaces/inkscape"
   version="1.0"
   x="0px"
   y="0px"
   viewBox="0 0 38 38"
   enable-background="new 0 0 152 117.5"
   xml:space="preserve"
   id="svg528"
   sodipodi:docname="Azure Notification Hubs.svg"
   width="38"
   height="38"
   inkscape:version="0.92.3 (2405546, 2018-03-11)"><metadata
   id="metadata534"><rdf:RDF><cc:Work
       rdf:about=""><dc:format>image/svg+xml</dc:format><dc:type
         rdf:resource="http://purl.org/dc/dcmitype/StillImage" /><dc:title></dc:title></cc:Work></rdf:RDF></metadata><defs
   id="defs532" /><sodipodi:namedview
   pagecolor="#ffffff"
   bordercolor="#666666"
   borderopacity="1"
   objecttolerance="10"
   gridtolerance="10"
   guidetolerance="10"
   inkscape:pageopacity="0"
   inkscape:pageshadow="2"
   inkscape:window-width="3840"
   inkscape:window-height="2004"
   id="namedview530"
   showgrid="false"
   inkscape:zoom="28.034043"
   inkscape:cx="33.776062"
   inkscape:cy="27.681693"
   inkscape:window-x="-16"
   inkscape:window-y="2864"
   inkscape:window-maximized="1"
   inkscape:current-layer="svg528" />
<g
   id="Layer_1"
   transform="translate(-58.3,-39.499999)">
	<g
   id="Azure">
	</g>
	<g
   id="BizTalk_Services"
   transform="translate(37.3575,-2500.2)">
	</g>
	<g
   id="Key_Vault">
	</g>
	<g
   id="Mobile_Engagement">
	</g>
</g>
<g
   id="paths"
   transform="translate(-57.622253,-40.249088)">
	<g
   id="Access_control">
	</g>
	<g
   id="Azure_active_directory">
	</g>
	<g
   id="API_Management">
	</g>
	<g
   id="Azure_automation">
	</g>
	<g
   id="Azure_SQL_database">
	</g>
	<g
   id="Azure_subscription">
	</g>
	<g
   id="Backup_service">
	</g>
	<g
   id="Bitbucket_code_source">
	</g>
	<g
   id="Azure_cache">
	</g>
	<g
   id="Content_delivery_network__x28_CDN_x29_">
	</g>
	<g
   id="Cloud_service">
	</g>
	<g
   id="CodePlex">
	</g>
	<g
   id="Dropbox_code_source">
	</g>
	<g
   id="Express_route">
	</g>
	<g
   id="Git_repository">
	</g>
	<g
   id="GitHub_code">
	</g>
	<g
   id="HD_Insight">
	</g>
	<g
   id="Health_monitoring">
	</g>
	<g
   id="Healthy">
	</g>
	<g
   id="BizTalk_hybrid_connection">
	</g>
	<g
   id="Hybrid_connection_manager_for_BizTalk_hybrid_connection">
	</g>
	<g
   id="Hyper-V_recovery_manager">
	</g>
	<g
   id="Machine_learning">
	</g>
	<g
   id="Media_services">
	</g>
	<g
   id="Microsoft_account">
	</g>
	<g
   id="Mobile_services">
	</g>
	<g
   id="Multi-factor_authentication">
	</g>
	<g
   id="MySQL_database">
	</g>
	<g
   id="Notification_hub">
		<g
   id="g524">
			<path
   d="M 61.2,54.7 H 94.4 L 86,46 v 4.8 H 62 v -4 c 0,-1.6 0.4,-2 2,-2 h 24.6 c 1.6,0 3.4,0.4 3.4,2 v 1.4 l 3,2.5 v -4 c 0,-3.2 -3.2,-5 -6.3,-5 H 64 c -3.2,0 -5,1.8 -5,5 v 8 h 1.9 z"
   id="path520"
   inkscape:connector-curvature="0"
   style="fill:#0078d7" />
			<path
   d="M 91.4,56.7 H 58.3 l 8.7,6.9 v -3.9 h 25 v 3.1 c 0,1.6 -1.8,3.9 -3.4,3.9 H 64 c -1.6,0 -2,-2.3 -2,-3.9 v -1.4 l -3,-2.5 v 4 c 0,3.2 1.8,5.9 5,5.9 h 5.4 l 12.2,8.7 -0.9,-8.7 h 8 c 3.2,0 6.3,-2.7 6.3,-5.9 v -6.1 h -3.1 -0.5 z"
   id="path522"
   inkscape:connector-curvature="0"
   style="fill:#0078d7" />
		</g>
	</g>
</g>
</svg>