<?xml version="1.0" encoding="UTF-8" standalone="no"?>
<!-- Generator: Adobe Illustrator 18.1.0, SVG Export Plug-In . SVG Version: 6.00 Build 0)  -->

<svg
   xmlns:dc="http://purl.org/dc/elements/1.1/"
   xmlns:cc="http://creativecommons.org/ns#"
   xmlns:rdf="http://www.w3.org/1999/02/22-rdf-syntax-ns#"
   xmlns:svg="http://www.w3.org/2000/svg"
   xmlns="http://www.w3.org/2000/svg"
   xmlns:sodipodi="http://sodipodi.sourceforge.net/DTD/sodipodi-0.dtd"
   xmlns:inkscape="http://www.inkscape.org/namespaces/inkscape"
   version="1.0"
   x="0px"
   y="0px"
   viewBox="0 0 45 45"
   enable-background="new 0 0 152 117.5"
   xml:space="preserve"
   id="svg121"
   sodipodi:docname="Azure Search.svg"
   width="45"
   height="45"
   inkscape:version="0.92.3 (2405546, 2018-03-11)"><metadata
   id="metadata127"><rdf:RDF><cc:Work
       rdf:about=""><dc:format>image/svg+xml</dc:format><dc:type
         rdf:resource="http://purl.org/dc/dcmitype/StillImage" /><dc:title></dc:title></cc:Work></rdf:RDF></metadata><defs
   id="defs125" /><sodipodi:namedview
   pagecolor="#ffffff"
   bordercolor="#666666"
   borderopacity="1"
   objecttolerance="10"
   gridtolerance="10"
   guidetolerance="10"
   inkscape:pageopacity="0"
   inkscape:pageshadow="2"
   inkscape:window-width="3840"
   inkscape:window-height="2004"
   id="namedview123"
   showgrid="false"
   inkscape:zoom="14.017021"
   inkscape:cx="76"
   inkscape:cy="58.75"
   inkscape:window-x="-16"
   inkscape:window-y="2864"
   inkscape:window-maximized="1"
   inkscape:current-layer="svg121" />
<g
   id="Layer_1"
   transform="translate(-53.649059,-36.401032)">
	<g
   id="Azure">
	</g>
	<g
   id="BizTalk_Services"
   transform="translate(37.3575,-2500.2)">
	</g>
	<g
   id="Key_Vault">
	</g>
	<g
   id="Mobile_Engagement">
	</g>
	<g
   id="Office_subscription">
		<g
   id="Office_subscription_1_">
		</g>
	</g>
	<g
   id="g80">
		<path
   d="m 91.9,57 c 0.3,-0.9 0.4,-1.8 0.4,-2.7 0,-5.9 -4.7,-10.7 -10.4,-10.7 -4.3,0 -8,2.7 -9.6,6.6 -1.3,-1.7 -3.3,-2.6 -5.6,-2.6 -4,0 -7.3,3.4 -7.3,7.6 0,0.7 0.1,1.4 0.3,2.1 -3.3,1.2 -5.6,4.1 -5.6,7.9 0,4.9 3.9,8.5 8.7,8.5 h 26.7 c 4.8,0 8.6,-3.6 8.6,-8.5 -0.1,-4 -2.6,-7 -6.2,-8.2 z m -5.8,3.7 C 85.3,63.8 82.6,66 79.4,66 78.9,66 78.3,65.9 77.7,65.8 77.2,65.6 76.6,65.4 76,65.2 L 71.2,70 c -0.4,0.4 -0.9,0.6 -1.4,0.6 -0.5,0 -1.1,-0.2 -1.4,-0.6 -0.4,-0.4 -0.6,-0.9 -0.6,-1.4 0,-0.5 0.2,-1.1 0.6,-1.4 l 4.8,-4.8 c -0.8,-1.5 -1.1,-3.3 -0.6,-4.9 0.8,-3.1 3.5,-5.3 6.7,-5.3 0.5,0 1.1,0.1 1.7,0.2 1.8,0.4 3.3,1.6 4.2,3.2 1.1,1.5 1.4,3.4 0.9,5.1 z"
   id="path76"
   inkscape:connector-curvature="0"
   style="clip-rule:evenodd;fill:#0078d7;fill-rule:evenodd" />
		<path
   d="m 80.5,54.9 c -0.4,-0.1 -0.7,-0.1 -1.1,-0.1 -1.9,0 -3.7,1.3 -4.1,3.3 -0.3,1.1 -0.1,2.5 0.6,3.4 0.3,0.4 0.7,0.8 1.1,1.1 0.4,0.3 0.9,0.5 1.4,0.6 0.4,0.1 0.7,0.1 1.1,0.1 1.9,0 3.7,-1.3 4.1,-3.3 0.3,-1.1 0.1,-2.3 -0.5,-3.3 -0.6,-0.8 -1.6,-1.5 -2.6,-1.8 z"
   id="path78"
   inkscape:connector-curvature="0"
   style="clip-rule:evenodd;fill:#0078d7;fill-rule:evenodd" />
	</g>
</g>
<g
   id="paths"
   transform="translate(0,-72.5)">
	<g
   id="Access_control">
	</g>
	<g
   id="Azure_active_directory">
	</g>
	<g
   id="API_Management">
	</g>
	<g
   id="Azure_automation">
	</g>
	<g
   id="Azure_SQL_database">
	</g>
	<g
   id="Azure_subscription">
	</g>
	<g
   id="Backup_service">
	</g>
	<g
   id="Bitbucket_code_source">
	</g>
	<g
   id="Azure_cache">
	</g>
	<g
   id="Content_delivery_network__x28_CDN_x29_">
	</g>
	<g
   id="Cloud_service">
	</g>
	<g
   id="CodePlex">
	</g>
	<g
   id="Dropbox_code_source">
	</g>
	<g
   id="Express_route">
	</g>
	<g
   id="Git_repository">
	</g>
	<g
   id="GitHub_code">
	</g>
	<g
   id="HD_Insight">
	</g>
	<g
   id="Health_monitoring">
	</g>
	<g
   id="Healthy">
	</g>
	<g
   id="BizTalk_hybrid_connection">
	</g>
	<g
   id="Hybrid_connection_manager_for_BizTalk_hybrid_connection">
	</g>
	<g
   id="Hyper-V_recovery_manager">
	</g>
	<g
   id="Machine_learning">
	</g>
	<g
   id="Media_services">
	</g>
	<g
   id="Microsoft_account">
	</g>
	<g
   id="Mobile_services">
	</g>
	<g
   id="Multi-factor_authentication">
	</g>
	<g
   id="MySQL_database">
	</g>
	<g
   id="Notification_hub">
	</g>
	<g
   id="Notification_topic">
	</g>
	<g
   id="Cloud_Office_365">
	</g>
	<g
   id="Office_365">
	</g>
	<g
   id="OS_image">
	</g>
	<g
   id="Remote_app">
	</g>
	<g
   id="Task_scheduler">
	</g>
	<g
   id="Azure_SDK">
	</g>
</g>
<g
   id="Layer_57"
   transform="translate(0,-72.5)">
</g>
</svg>