<?xml version="1.0" encoding="UTF-8" standalone="no"?>
<!-- Generated by Microsoft Visio, SVG Export Service Fabric.svg Page-1 -->

<svg
   xmlns:v="http://schemas.microsoft.com/visio/2003/SVGExtensions/"
   xmlns:dc="http://purl.org/dc/elements/1.1/"
   xmlns:cc="http://creativecommons.org/ns#"
   xmlns:rdf="http://www.w3.org/1999/02/22-rdf-syntax-ns#"
   xmlns:svg="http://www.w3.org/2000/svg"
   xmlns="http://www.w3.org/2000/svg"
   xmlns:sodipodi="http://sodipodi.sourceforge.net/DTD/sodipodi-0.dtd"
   xmlns:inkscape="http://www.inkscape.org/namespaces/inkscape"
   width="0.43000001in"
   height="0.43000001in"
   viewBox="0 0 30.960023 30.959984"
   xml:space="preserve"
   class="st2"
   version="1.1"
   id="svg601"
   sodipodi:docname="Azure Service Fabric.svg"
   style="font-size:12px;overflow:visible;color-interpolation-filters:sRGB;fill:none;fill-rule:evenodd;stroke-linecap:square;stroke-miterlimit:3"
   inkscape:version="0.92.3 (2405546, 2018-03-11)"><metadata
   id="metadata607"><rdf:RDF><cc:Work
       rdf:about=""><dc:format>image/svg+xml</dc:format><dc:type
         rdf:resource="http://purl.org/dc/dcmitype/StillImage" /><dc:title></dc:title></cc:Work></rdf:RDF></metadata><defs
   id="defs605" /><sodipodi:namedview
   pagecolor="#ffffff"
   bordercolor="#666666"
   borderopacity="1"
   objecttolerance="10"
   gridtolerance="10"
   guidetolerance="10"
   inkscape:pageopacity="0"
   inkscape:pageshadow="2"
   inkscape:window-width="3840"
   inkscape:window-height="2004"
   id="namedview603"
   showgrid="false"
   inkscape:zoom="38.191284"
   inkscape:cx="29.921794"
   inkscape:cy="16.070413"
   inkscape:window-x="-16"
   inkscape:window-y="2864"
   inkscape:window-maximized="1"
   inkscape:current-layer="svg601" />
	<v:documentProperties
   v:langID="1033"
   v:viewMarkup="false">
		<v:userDefs>
			<v:ud
   v:nameU="visTLShowProps"
   v:prompt=""
   v:val="VT0(0):26" />
		</v:userDefs>
	</v:documentProperties>

	<style
   type="text/css"
   id="style590">
	<![CDATA[
		.st1 {fill:#0078d7;stroke:none;stroke-linecap:butt;stroke-width:0.75}
		.st2 {fill:none;fill-rule:evenodd;font-size:12px;overflow:visible;stroke-linecap:square;stroke-miterlimit:3}
	]]>
	</style>

	<g
   v:mID="0"
   v:index="1"
   v:groupContext="foregroundPage"
   id="g599"
   transform="translate(-6.665898,-2.7602383)">
		<title
   id="title592">Page-1</title>
		<v:pageProperties
   v:drawingScale="1"
   v:pageScale="1"
   v:drawingUnits="19"
   v:shadowOffsetX="2.83465"
   v:shadowOffsetY="-2.83465"
   v:shadowType="1" />
		<g
   id="shape1078-1"
   v:mID="1078"
   v:groupContext="shape"
   transform="translate(7.13721,-31.5)">
			<title
   id="title594">Service Fabric</title>
			<path
   d="m 29.93,47.39 c 0,-2.59 -2.1,-4.68 -4.68,-4.68 -0.95,0 -1.84,0.29 -2.58,0.78 l -3.24,-2.68 c 0.14,-0.44 0.21,-0.9 0.21,-1.37 0,-2.59 -2.09,-4.68 -4.68,-4.68 -2.58,0 -4.67,2.09 -4.67,4.68 0,0.47 0.07,0.93 0.2,1.36 L 7.01,43.69 C 6.33,43.36 5.53,43.18 4.68,43.18 2.09,43.18 0,44.8 0,47.39 c 0,2.3 1.66,4.21 3.85,4.59 l 1.26,4.51 C 4.13,57.35 3.5,58.6 3.5,60.01 c 0,2.58 2.1,4.68 4.68,4.68 2.01,0 3.71,-1.27 4.38,-3.05 h 4.81 c 0.66,1.78 2.37,3.05 4.37,3.05 2.59,0 4.68,-2.1 4.68,-4.68 0,-1.46 -0.67,-2.77 -1.72,-3.62 L 25.99,52 c 2.23,-0.36 3.94,-2.28 3.94,-4.61 z m -8.19,7.95 c -2.26,0 -4.14,1.6 -4.58,3.73 h -4.4 c -0.44,-2.13 -2.32,-3.73 -4.58,-3.73 -0.24,0 -0.48,0.02 -0.71,0.05 L 6.45,51.71 c 1.7,-0.7 2.9,-2.37 2.9,-4.32 0,-0.72 -0.16,-1.36 -0.45,-1.92 l 3.01,-2.5 c 0.82,0.71 1.88,1.14 3.05,1.14 1.17,0 2.24,-0.43 3.06,-1.14 L 21,45.45 c -0.27,0.59 -0.42,1.24 -0.42,1.93 0,1.93 1.16,3.58 2.82,4.3 l -1.09,3.69 c -0.18,-0.02 -0.37,-0.03 -0.57,-0.03 z"
   class="st1"
   id="path596"
   inkscape:connector-curvature="0"
   style="fill:#0078d7;stroke:none;stroke-width:0.75;stroke-linecap:butt" />
		</g>
	</g>
</svg>