<?xml version="1.0" encoding="UTF-8" standalone="no"?>
<!-- Generator: Adobe Illustrator 18.1.0, SVG Export Plug-In . SVG Version: 6.00 Build 0)  -->

<svg
   xmlns:dc="http://purl.org/dc/elements/1.1/"
   xmlns:cc="http://creativecommons.org/ns#"
   xmlns:rdf="http://www.w3.org/1999/02/22-rdf-syntax-ns#"
   xmlns:svg="http://www.w3.org/2000/svg"
   xmlns="http://www.w3.org/2000/svg"
   xmlns:sodipodi="http://sodipodi.sourceforge.net/DTD/sodipodi-0.dtd"
   xmlns:inkscape="http://www.inkscape.org/namespaces/inkscape"
   version="1.0"
   x="0px"
   y="0px"
   viewBox="0 0 41.000001 41"
   enable-background="new 0 0 152 117.5"
   xml:space="preserve"
   id="svg471"
   sodipodi:docname="Azure Media Services.svg"
   width="41"
   height="41"
   inkscape:version="0.92.3 (2405546, 2018-03-11)"><metadata
   id="metadata477"><rdf:RDF><cc:Work
       rdf:about=""><dc:format>image/svg+xml</dc:format><dc:type
         rdf:resource="http://purl.org/dc/dcmitype/StillImage" /><dc:title></dc:title></cc:Work></rdf:RDF></metadata><defs
   id="defs475" /><sodipodi:namedview
   pagecolor="#ffffff"
   bordercolor="#666666"
   borderopacity="1"
   objecttolerance="10"
   gridtolerance="10"
   guidetolerance="10"
   inkscape:pageopacity="0"
   inkscape:pageshadow="2"
   inkscape:window-width="3840"
   inkscape:window-height="2004"
   id="namedview473"
   showgrid="false"
   inkscape:zoom="28.034043"
   inkscape:cx="8.9981488"
   inkscape:cy="24.583894"
   inkscape:window-x="-16"
   inkscape:window-y="2864"
   inkscape:window-maximized="1"
   inkscape:current-layer="svg471" />
<g
   id="Layer_1"
   transform="translate(-58.3,-37.700002)">
	<g
   id="Azure">
	</g>
	<g
   id="BizTalk_Services"
   transform="translate(37.3575,-2500.2)">
	</g>
	<g
   id="Key_Vault">
	</g>
</g>
<g
   id="paths"
   transform="translate(-55.411579,-38.145364)">
	<g
   id="Access_control">
	</g>
	<g
   id="Azure_active_directory">
	</g>
	<g
   id="API_Management">
	</g>
	<g
   id="Azure_automation">
	</g>
	<g
   id="Azure_SQL_database">
	</g>
	<g
   id="Azure_subscription">
	</g>
	<g
   id="Backup_service">
	</g>
	<g
   id="Bitbucket_code_source">
	</g>
	<g
   id="Azure_cache">
	</g>
	<g
   id="Content_delivery_network__x28_CDN_x29_">
	</g>
	<g
   id="Cloud_service">
	</g>
	<g
   id="CodePlex">
	</g>
	<g
   id="Dropbox_code_source">
	</g>
	<g
   id="Express_route">
	</g>
	<g
   id="Git_repository">
	</g>
	<g
   id="GitHub_code">
	</g>
	<g
   id="HD_Insight">
	</g>
	<g
   id="Health_monitoring">
	</g>
	<g
   id="Healthy">
	</g>
	<g
   id="BizTalk_hybrid_connection">
	</g>
	<g
   id="Hybrid_connection_manager_for_BizTalk_hybrid_connection">
	</g>
	<g
   id="Hyper-V_recovery_manager">
	</g>
	<g
   id="Machine_learning">
	</g>
	<g
   id="Media_services">
		<path
   d="M 93.7,48.7 76,38.8 58.3,49 v 8 c 0.1,0 0,0 0,0 0,0 0,0 0,0 2.7,0 3.8,0.1 4.6,-2.1 1.9,-5.3 6.6,-9.8 12.9,-9.8 v 0 c 6.4,0 11,4.5 12.9,9.8 0.8,2.3 1.9,2.1 4.8,2.1 v -8.3 z"
   id="path463"
   inkscape:connector-curvature="0"
   style="fill:#0078d7" />
		<path
   d="m 93.7,61.8 h -1.9 c -1.7,0.1 -2.4,0.5 -2.9,1.7 -1.9,5.3 -6.6,9.2 -12.9,9.2 v 0 c -6.4,0 -11,-4 -13,-9.2 -0.5,-1.3 -1.2,-1.6 -2.9,-1.7 h -1.7 v 0 c 0,0 0.3,0 0,0 v 7 l 17.8,9.9 17.5,-10.2 z"
   id="path465"
   inkscape:connector-curvature="0"
   style="fill:#0078d7" />
		<path
   d="M 73.6,65 V 53.5 l 8.7,5.7 z m 8.8,-12.4 c -3.6,-3.6 -9.3,-3.6 -12.9,0 -3.6,3.6 -3.6,9.3 0,12.9 3.6,3.5 9.3,3.5 12.9,0 3.6,-3.5 3.6,-9.3 0,-12.9 z"
   id="path467"
   inkscape:connector-curvature="0"
   style="fill:#0078d7" />
	</g>
</g>
</svg>