<?xml version="1.0" encoding="UTF-8" standalone="no"?>
<!-- Generator: Adobe Illustrator 18.1.0, SVG Export Plug-In . SVG Version: 6.00 Build 0)  -->

<svg
   xmlns:dc="http://purl.org/dc/elements/1.1/"
   xmlns:cc="http://creativecommons.org/ns#"
   xmlns:rdf="http://www.w3.org/1999/02/22-rdf-syntax-ns#"
   xmlns:svg="http://www.w3.org/2000/svg"
   xmlns="http://www.w3.org/2000/svg"
   xmlns:sodipodi="http://sodipodi.sourceforge.net/DTD/sodipodi-0.dtd"
   xmlns:inkscape="http://www.inkscape.org/namespaces/inkscape"
   version="1.0"
   x="0px"
   y="0px"
   viewBox="0 0 41 41"
   enable-background="new 0 0 152 117.5"
   xml:space="preserve"
   id="svg54"
   sodipodi:docname="Azure Active Directory.svg"
   width="41"
   height="41"
   inkscape:version="0.92.3 (2405546, 2018-03-11)"><metadata
   id="metadata60"><rdf:RDF><cc:Work
       rdf:about=""><dc:format>image/svg+xml</dc:format><dc:type
         rdf:resource="http://purl.org/dc/dcmitype/StillImage" /><dc:title></dc:title></cc:Work></rdf:RDF></metadata><defs
   id="defs58" /><sodipodi:namedview
   pagecolor="#ffffff"
   bordercolor="#666666"
   borderopacity="1"
   objecttolerance="10"
   gridtolerance="10"
   guidetolerance="10"
   inkscape:pageopacity="0"
   inkscape:pageshadow="2"
   inkscape:window-width="3840"
   inkscape:window-height="2004"
   id="namedview56"
   showgrid="false"
   inkscape:zoom="56.068085"
   inkscape:cx="22.128738"
   inkscape:cy="30.101893"
   inkscape:window-x="-16"
   inkscape:window-y="2864"
   inkscape:window-maximized="1"
   inkscape:current-layer="svg54" />
<g
   id="Layer_1"
   transform="translate(0,-76.5)">
</g>
<g
   id="paths"
   transform="translate(-55.503946,-38.296449)">
	<g
   id="Access_control">
	</g>
	<g
   id="Azure_active_directory">
		<g
   id="g50">
			<g
   id="shape195-329_1_"
   transform="translate(10.0395,-10.272)">
				<title
   id="title38">Sheet.195</title>
				<path
   d="m 64.5,64.2 -6.7,6.2 c 0.3,0.5 0.5,1.1 0.5,1.6 0,0.3 0,0.6 -0.1,0.9 l 6.9,4.2 V 65 C 65,65 64.6,64.3 64.5,64.2 Z"
   id="path40"
   inkscape:connector-curvature="0"
   style="fill:#0078d7" />
			</g>
			<g
   id="shape196-331_1_"
   transform="translate(17.3865,-10.2682)">
				<title
   id="title43">Sheet.196</title>
				<path
   d="m 60.6,64.1 c -0.1,0.1 -1.2,0.9 -1.3,1 v 12 l 6.9,-4.4 C 66.1,72.4 66,72.2 66,72 c 0,-0.4 0.1,-0.8 0.2,-1.2 z"
   id="path45"
   inkscape:connector-curvature="0"
   style="fill:#0078d7" />
			</g>
			<path
   d="M 76,38.5 55.8,62.5 75.9,78.9 96.1,62.6 Z M 86.7,65 C 85.8,65 85,64.6 84.4,64 l -5.5,3.9 c 0.4,0.5 0.5,1.1 0.5,1.8 0,1.8 -1.5,3.2 -3.2,3.2 -1.8,0 -3.2,-1.4 -3.2,-3.2 0,-0.8 0.3,-1.5 0.8,-2.1 l -6.4,-3.4 c -0.6,0.6 -1.4,0.9 -2.2,0.9 -1.8,0 -3.2,-1.4 -3.2,-3.2 0,-1.8 1.5,-3.2 3.2,-3.2 0.5,0 1,0.1 1.5,0.4 l 6.7,-6.2 c -0.5,-0.6 -0.7,-1.4 -0.7,-2.1 0,-2 1.6,-3.5 3.6,-3.5 2,0 3.6,1.6 3.6,3.5 0,0.7 -0.2,1.3 -0.6,1.9 l 5.7,6.7 c 0.5,-0.4 1.2,-0.6 1.9,-0.6 1.8,0 3.2,1.4 3.2,3.2 -0.2,1.5 -1.7,3 -3.4,3 z"
   id="path48"
   inkscape:connector-curvature="0"
   style="fill:#0078d7" />
		</g>
	</g>
</g>
</svg>