<?xml version="1.0" encoding="UTF-8" standalone="no"?>
<!-- Generator: Adobe Illustrator 18.1.0, SVG Export Plug-In . SVG Version: 6.00 Build 0)  -->

<svg
   xmlns:dc="http://purl.org/dc/elements/1.1/"
   xmlns:cc="http://creativecommons.org/ns#"
   xmlns:rdf="http://www.w3.org/1999/02/22-rdf-syntax-ns#"
   xmlns:svg="http://www.w3.org/2000/svg"
   xmlns="http://www.w3.org/2000/svg"
   xmlns:sodipodi="http://sodipodi.sourceforge.net/DTD/sodipodi-0.dtd"
   xmlns:inkscape="http://www.inkscape.org/namespaces/inkscape"
   version="1.0"
   id="Layer_1"
   x="0px"
   y="0px"
   viewBox="0 0 42.999998 42.999998"
   enable-background="new 0 0 176.1 136.1"
   xml:space="preserve"
   sodipodi:docname="Azure App Service - Azure API Apps.svg"
   width="43"
   height="43"
   inkscape:version="0.92.3 (2405546, 2018-03-11)"><metadata
   id="metadata551"><rdf:RDF><cc:Work
       rdf:about=""><dc:format>image/svg+xml</dc:format><dc:type
         rdf:resource="http://purl.org/dc/dcmitype/StillImage" /><dc:title></dc:title></cc:Work></rdf:RDF></metadata><defs
   id="defs549" /><sodipodi:namedview
   pagecolor="#ffffff"
   bordercolor="#666666"
   borderopacity="1"
   objecttolerance="10"
   gridtolerance="10"
   guidetolerance="10"
   inkscape:pageopacity="0"
   inkscape:pageshadow="2"
   inkscape:window-width="3840"
   inkscape:window-height="2004"
   id="namedview547"
   showgrid="false"
   inkscape:zoom="24.202791"
   inkscape:cx="26.563119"
   inkscape:cy="21.851972"
   inkscape:window-x="-16"
   inkscape:window-y="2864"
   inkscape:window-maximized="1"
   inkscape:current-layer="Layer_1" />
<path
   d="M 38.492228,0.90419091 H 4.6922284 c -1,0 -1.8,0.79999999 -1.8,1.79999999 V 30.004191 c 0,1 0.8,1.8 1.8,1.8 h 8.6999996 c 0.7,2.2 2.8,3.7 5.3,3.7 3,0 5.5,-2.5 5.5,-5.5 0,-3 -2.5,-5.5 -5.5,-5.5 -2.5,0 -4.6,1.5 -5.3,3.7 H 6.4922284 V 8.7041909 H 36.692228 V 28.204191 h -5.7 c -0.8,-6 -6.1,-10.7 -12.3,-10.7 -2.1,0 -4.2,0.6 -6,1.5 l 1.7,3.2 c 1.2,-0.7 2.8,-1.1 4.2,-1.1 4.8,0 8.9,4 8.9,8.9 0,4.9 -4,8.9 -8.9,8.9 -1.5,0 -2.9,-0.4 -4.2,-1.1 l -1.7,3.2 c 1.8,1 3.9,1.5 6,1.5 6.2,0 11.5,-4.7 12.3,-10.7 h 7.5 c 1,0 1.8,-0.8 1.8,-1.8 V 2.7041909 c 0,-0.9 -0.8,-1.79999999 -1.8,-1.79999999 z"
   id="path544"
   inkscape:connector-curvature="0"
   style="fill:#3276bc" />
</svg>