<svg height="512pt" viewBox="0 0 512 512.001" width="512pt" xmlns="http://www.w3.org/2000/svg"><g fill-rule="evenodd"><path d="m213.589844 369.945312c41.761718 0 81.027344-16.265624 110.558594-45.796874 60.964843-60.960938 60.964843-160.15625 0-221.121094-29.53125-29.53125-68.796876-45.796875-110.558594-45.796875-41.765625 0-81.03125 16.265625-110.5625 45.796875-60.964844 60.960937-60.964844 160.15625 0 221.121094 29.53125 29.53125 68.796875 45.796874 110.5625 45.796874zm-96.457032-252.8125c25.765626-25.765624 60.019532-39.953124 96.457032-39.953124 36.433594 0 70.691406 14.1875 96.453125 39.953124 53.1875 53.183594 53.1875 139.726563 0 192.910157-25.761719 25.761719-60.019531 39.953125-96.453125 39.953125-36.4375 0-70.691406-14.191406-96.457032-39.953125-53.1875-53.183594-53.1875-139.726563 0-192.910157zm0 0"/><path d="m498.414062 432.707031-104.53125-104.53125c53.597657-84.054687 41.863282-194.488281-29.265624-265.617187-40.339844-40.34375-93.976563-62.558594-151.027344-62.558594-57.050782 0-110.6875 22.214844-151.03125 62.558594-30.035156 30.035156-50.253906 67.859375-58.46875 109.382812-1.070313 5.40625 2.441406 10.652344 7.847656 11.722656 5.402344 1.070313 10.652344-2.445312 11.71875-7.847656 7.449219-37.636718 25.777344-71.921875 53.007812-99.152344 36.574219-36.574218 85.203126-56.714843 136.925782-56.714843s100.347656 20.140625 136.921875 56.714843c66.28125 66.285157 75.683593 170.207032 22.347656 247.105469-2.75 3.964844-2.269531 9.328125 1.140625 12.738281l110.308594 110.304688c10.335937 10.335938 10.335937 27.15625 0 37.496094-10.339844 10.335937-27.160156 10.335937-37.496094 0l-110.304688-110.308594c-3.410156-3.410156-8.773437-3.890625-12.738281-1.140625-76.898437 53.332031-180.820312 43.9375-247.105469-22.347656-27.234374-27.234375-45.5625-61.519531-53.007812-99.148438-1.066406-5.40625-6.3125-8.921875-11.71875-7.851562-5.40625 1.070312-8.917969 6.316406-7.847656 11.722656 8.210937 41.519531 28.429687 79.34375 58.46875 109.382813 71.132812 71.132812 181.566406 82.867187 265.617187 29.269531l104.53125 104.527343c9.058594 9.058594 20.957031 13.585938 32.855469 13.585938s23.792969-4.527344 32.851562-13.585938c18.113282-18.117187 18.113282-47.589843 0-65.707031zm0 0"/><path d="m125.921875 223.5625h77.691406v77.691406c0 5.507813 4.464844 9.972656 9.976563 9.972656 5.507812 0 9.972656-4.464843 9.972656-9.972656v-77.691406h77.691406c5.507813 0 9.972656-4.464844 9.972656-9.976562 0-5.507813-4.464843-9.972657-9.972656-9.972657h-77.691406v-77.691406c0-5.507813-4.464844-9.972656-9.972656-9.972656-5.511719 0-9.976563 4.464843-9.976563 9.972656v77.691406h-77.691406c-5.507813 0-9.972656 4.464844-9.972656 9.972657 0 5.507812 4.464843 9.976562 9.972656 9.976562zm0 0"/><path d="m19.949219 213.585938c0-5.492188-4.480469-9.972657-9.972657-9.972657-5.496093 0-9.976562 4.480469-9.976562 9.972657 0 5.496093 4.480469 9.976562 9.976562 9.976562 5.492188 0 9.972657-4.480469 9.972657-9.976562zm0 0"/></g></svg>