<?xml version="1.0" encoding="utf-8"?>
<!-- Generator: Adobe Illustrator 22.0.1, SVG Export Plug-In . SVG Version: 6.00 Build 0)  -->
<svg version="1.1" xmlns="http://www.w3.org/2000/svg" xmlns:xlink="http://www.w3.org/1999/xlink" x="0px" y="0px"
	 viewBox="0 0 200 170.4" style="enable-background:new 0 0 395.1 170.4;" xml:space="preserve">
<style type="text/css">
	.st0{display:none;}
	.st1{display:inline;}
	.st2{fill:none;stroke:#000000;stroke-width:20;stroke-linecap:round;stroke-linejoin:round;}
	.st3{fill:#008688;}
</style>
<g id="Layer_1" class="st0">
	<g class="st1">
		<g>
			<polyline class="st2" points="107.1,26.5 62.1,143.5 149,143.5 			"/>
			<g>
				<polygon points="142.9,164.4 179.1,143.5 142.9,122.5 				"/>
			</g>
		</g>
	</g>
	<g class="st1">
		<path d="M146.6,41.5L146.6,41.5L146.6,41.5 M175.3,46.5c-4.5,22.1-17.1,37.9-38.2,48c-5.8,2.8-11.6,4.8-17.2,6.4
			c1.4-3.5,2.8-7.1,4.2-10.7c10.2-25.4,16.2-37.8,19.4-43.7H175.3 M197.1,26.5L197.1,26.5L197.1,26.5z M197.1,26.5c-18,0-36,0-63,0
			c-9,0-45,99-45,99s0.1,0,0.3,0C95.8,125.5,197.1,124,197.1,26.5L197.1,26.5z"/>
	</g>
	<g class="st1">
		<path d="M206.8,110.4c0,2.7-0.6,5.1-1.7,7.2c-1.2,2.2-2.7,3.8-4.6,5c-1.3,0.8-2.8,1.4-4.5,1.8c-1.6,0.4-3.8,0.5-6.5,0.5h-7.4V95.8
			h7.3c2.8,0,5.1,0.2,6.8,0.6c1.7,0.4,3.1,1,4.3,1.7c2,1.2,3.5,2.9,4.6,5C206.3,105.1,206.8,107.6,206.8,110.4z M202.8,110.3
			c0-2.3-0.4-4.2-1.2-5.8c-0.8-1.6-2-2.8-3.6-3.7c-1.2-0.7-2.4-1.1-3.7-1.4c-1.3-0.3-2.8-0.4-4.6-0.4h-3.6v22.5h3.6
			c1.9,0,3.5-0.1,4.9-0.4c1.4-0.3,2.7-0.8,3.8-1.5c1.5-0.9,2.5-2.1,3.3-3.7C202.4,114.5,202.8,112.6,202.8,110.3z"/>
		<path d="M233.4,95.8l-10.3,16.4V125h-3.9v-12.4l-10.3-16.8h4.3l8,13.1l8.1-13.1H233.4z"/>
		<path d="M259.7,125h-4.8L241,98.9V125h-3.6V95.8h6l12.6,23.8V95.8h3.6V125z"/>
		<path d="M290.4,125h-4.1l-2.9-8.1h-12.6L268,125H264l10.6-29.2h5.2L290.4,125z M282.3,113.5l-5.1-14.3l-5.1,14.3H282.3z"/>
		<path d="M320.9,125H317V99.8l-8.1,17.1h-2.3l-8.1-17.1V125h-3.6V95.8h5.3L308,112l7.5-16.2h5.4V125z"/>
		<path d="M339,125h-11.5v-3h3.8V98.8h-3.8v-3H339v3h-3.8V122h3.8V125z"/>
		<path d="M368.1,122.8c-0.7,0.3-1.4,0.6-1.9,0.9c-0.6,0.3-1.3,0.6-2.3,0.9c-0.8,0.2-1.7,0.5-2.6,0.6c-0.9,0.2-2,0.3-3.1,0.3
			c-2.1,0-4-0.3-5.8-0.9c-1.7-0.6-3.2-1.5-4.5-2.8c-1.3-1.2-2.2-2.8-2.9-4.7c-0.7-1.9-1.1-4.1-1.1-6.7c0-2.4,0.3-4.6,1-6.4
			c0.7-1.9,1.7-3.5,2.9-4.8c1.2-1.3,2.7-2.2,4.5-2.9c1.8-0.7,3.7-1,5.9-1c1.6,0,3.1,0.2,4.7,0.6c1.6,0.4,3.3,1,5.2,2v4.6h-0.3
			c-1.6-1.3-3.2-2.3-4.8-2.9c-1.6-0.6-3.3-0.9-5.1-0.9c-1.5,0-2.8,0.2-4,0.7c-1.2,0.5-2.2,1.2-3.2,2.2c-0.9,1-1.6,2.2-2.1,3.7
			c-0.5,1.5-0.8,3.2-0.8,5.2c0,2.1,0.3,3.8,0.8,5.3c0.6,1.5,1.3,2.7,2.1,3.6c0.9,1,2,1.7,3.2,2.1c1.2,0.5,2.5,0.7,3.9,0.7
			c1.9,0,3.6-0.3,5.3-1c1.6-0.6,3.2-1.6,4.6-2.9h0.3V122.8z"/>
	</g>
	<g class="st1">
		<path d="M196.7,152.1h-14.5v-22.9h3v20.2h11.4V152.1z"/>
		<path d="M217.8,152.1h-3.2l-2.2-6.4h-9.9l-2.2,6.4h-3.1l8.3-22.9h4.1L217.8,152.1z M211.4,143.1l-4-11.2l-4,11.2H211.4z"/>
		<path d="M238.8,152.1H235l-10.8-20.5v20.5h-2.8v-22.9h4.7l9.9,18.7v-18.7h2.8V152.1z"/>
		<path d="M264.2,140.7c0,2.1-0.5,4-1.4,5.7c-0.9,1.7-2.1,3-3.6,3.9c-1,0.6-2.2,1.1-3.5,1.4c-1.3,0.3-3,0.4-5.1,0.4h-5.8v-22.9h5.7
			c2.2,0,4,0.2,5.3,0.5c1.3,0.3,2.4,0.8,3.3,1.3c1.6,1,2.8,2.3,3.6,3.9C263.7,136.5,264.2,138.4,264.2,140.7z M261,140.6
			c0-1.8-0.3-3.3-0.9-4.5c-0.6-1.2-1.6-2.2-2.8-2.9c-0.9-0.5-1.9-0.9-2.9-1.1c-1-0.2-2.2-0.3-3.6-0.3h-2.9v17.7h2.9
			c1.5,0,2.7-0.1,3.8-0.3c1.1-0.2,2.1-0.6,3-1.2c1.1-0.7,2-1.7,2.6-2.9C260.7,143.9,261,142.4,261,140.6z"/>
		<path d="M285.7,145.5c0,0.9-0.2,1.8-0.6,2.6c-0.4,0.9-1,1.6-1.7,2.2c-0.8,0.7-1.8,1.2-2.9,1.5c-1.1,0.4-2.4,0.6-3.9,0.6
			c-1.6,0-3.1-0.2-4.4-0.5c-1.3-0.3-2.7-0.8-4-1.4v-3.8h0.2c1.2,1,2.5,1.7,4,2.2c1.5,0.5,2.9,0.8,4.3,0.8c1.9,0,3.4-0.4,4.4-1.1
			c1-0.7,1.6-1.6,1.6-2.8c0-1-0.2-1.8-0.7-2.2c-0.5-0.5-1.3-0.9-2.3-1.1c-0.8-0.2-1.6-0.4-2.5-0.5c-0.9-0.1-1.8-0.3-2.9-0.5
			c-2-0.4-3.5-1.2-4.5-2.2c-1-1-1.5-2.4-1.5-4.1c0-1.9,0.8-3.5,2.4-4.7c1.6-1.2,3.7-1.8,6.2-1.8c1.6,0,3.1,0.2,4.4,0.5
			c1.3,0.3,2.5,0.7,3.6,1.1v3.6h-0.2c-0.9-0.7-2-1.3-3.4-1.8c-1.4-0.5-2.9-0.7-4.4-0.7c-1.6,0-2.9,0.3-3.9,1c-1,0.7-1.5,1.5-1.5,2.6
			c0,1,0.2,1.7,0.7,2.2c0.5,0.5,1.4,1,2.6,1.2c0.7,0.1,1.6,0.3,2.8,0.5c1.2,0.2,2.2,0.4,3.1,0.6c1.7,0.5,3,1.1,3.8,2
			C285.3,142.6,285.7,143.9,285.7,145.5z"/>
		<path d="M308.3,150.4c-0.6,0.2-1.1,0.5-1.5,0.7c-0.5,0.2-1.1,0.4-1.8,0.7c-0.6,0.2-1.3,0.4-2,0.5c-0.7,0.1-1.5,0.2-2.4,0.2
			c-1.7,0-3.2-0.2-4.5-0.7c-1.4-0.5-2.5-1.2-3.5-2.2c-1-1-1.8-2.2-2.3-3.7c-0.6-1.5-0.8-3.2-0.8-5.2c0-1.9,0.3-3.6,0.8-5.1
			c0.5-1.5,1.3-2.7,2.3-3.8c1-1,2.1-1.8,3.5-2.3c1.4-0.5,2.9-0.8,4.6-0.8c1.2,0,2.5,0.1,3.7,0.4c1.2,0.3,2.6,0.8,4.1,1.6v3.6H308
			c-1.3-1.1-2.5-1.8-3.7-2.3c-1.2-0.5-2.6-0.7-4-0.7c-1.2,0-2.2,0.2-3.1,0.6c-0.9,0.4-1.8,1-2.5,1.7c-0.7,0.8-1.3,1.7-1.7,2.9
			c-0.4,1.2-0.6,2.5-0.6,4.1c0,1.6,0.2,3,0.7,4.1c0.4,1.2,1,2.1,1.7,2.8c0.7,0.8,1.6,1.3,2.5,1.7c1,0.4,2,0.5,3,0.5
			c1.5,0,2.8-0.3,4.1-0.8c1.3-0.5,2.5-1.3,3.6-2.3h0.2V150.4z"/>
		<path d="M330.6,152.1h-3.2l-2.2-6.4h-9.9l-2.2,6.4h-3.1l8.3-22.9h4.1L330.6,152.1z M324.2,143.1l-4-11.2l-4,11.2H324.2z"/>
		<path d="M349.1,136.1c0,1-0.2,2-0.5,2.8c-0.4,0.9-0.8,1.6-1.5,2.3c-0.8,0.8-1.7,1.4-2.8,1.8c-1.1,0.4-2.4,0.6-4.1,0.6h-3v8.5h-3
			v-22.9h6.2c1.4,0,2.5,0.1,3.5,0.3c1,0.2,1.8,0.6,2.5,1.1c0.9,0.6,1.5,1.3,2,2.2C348.8,133.7,349.1,134.8,349.1,136.1z
			 M345.9,136.2c0-0.8-0.1-1.5-0.4-2.1c-0.3-0.6-0.7-1.1-1.3-1.4c-0.5-0.3-1.1-0.5-1.7-0.7c-0.6-0.1-1.4-0.2-2.4-0.2h-3v9.1h2.6
			c1.2,0,2.2-0.1,3-0.3c0.8-0.2,1.4-0.6,1.9-1.1c0.5-0.5,0.8-1,1-1.6C345.8,137.5,345.9,136.9,345.9,136.2z"/>
		<path d="M368.1,152.1h-15.1v-22.9h15.1v2.7h-12v6.3h12v2.7h-12v8.5h12V152.1z"/>
	</g>
</g>

</svg>
