<?xml version="1.0" encoding="utf-8"?>
<!-- Generator: Adobe Illustrator 22.0.1, SVG Export Plug-In . SVG Version: 6.00 Build 0)  -->
<svg version="1.1" id="Layer_1" xmlns="http://www.w3.org/2000/svg" xmlns:xlink="http://www.w3.org/1999/xlink" x="0px" y="0px"
	 viewBox="0 0 100 100" style="enable-background:new 0 0 100 100;" xml:space="preserve">
<g>
	<path d="M56.8,33.2c-1-4.9-1.8-7.3-3-8.9c-1.6-2.4-3-3.1-10.8-3.1h-7.7v50.1c0,8.1,0.8,9,10.8,9.6v3.2H17v-3.2
		c9.6-0.5,10.5-1.4,10.5-9.6V21.2h-7.2c-7.7,0-9.9,0.7-11.2,3c-1.1,1.7-1.9,4.5-3.1,9H2.7c0.4-6,1-12.6,1.2-18.2h2.2
		c1.5,2.3,2.8,2.5,5.6,2.5h40.2c2.7,0,3.3-0.6,4.8-2.5h2.4c0,4.8,0.5,12.1,1,17.8L56.8,33.2z"/>
</g>
<g>
	<path d="M75.4,55.1v23.4h-7.4V55.1H46.4v-6.3h21.6V27.7h7.4v21.1H97v6.3H75.4z"/>
</g>
</svg>
