<?xml version="1.0" encoding="utf-8"?>
<!-- Generator: Adobe Illustrator 22.0.1, SVG Export Plug-In . SVG Version: 6.00 Build 0)  -->
<svg version="1.1" id="Ebene_1" xmlns="http://www.w3.org/2000/svg" xmlns:xlink="http://www.w3.org/1999/xlink" x="0px" y="0px"
	 viewBox="0 0 460.4 146.9" style="enable-background:new 0 0 460.4 146.9;" xml:space="preserve">
<style type="text/css">
	.st0{fill:#5A585A;}
	.st1{fill:#008688;}
</style>
<path class="st0" d="M114.2,63.3c0.8,0,1.7-0.1,2.4-0.2c0.8-0.1,1.4-0.3,2-0.7c0.6-0.4,1-0.9,1.4-1.6c0.3-0.7,0.5-1.6,0.5-2.7V33.9
	c0-1.1-0.2-2-0.5-2.7c-0.3-0.7-0.8-1.2-1.4-1.6c-0.6-0.4-1.2-0.6-2-0.8c-0.8-0.1-1.6-0.2-2.4-0.2h-0.2v-3.2h13.7v32.4
	c0,1.2,0.2,2.2,0.5,2.9c0.3,0.7,0.8,1.3,1.3,1.7c0.6,0.4,1.2,0.6,2,0.8c0.8,0.1,1.6,0.2,2.4,0.2h1v3.2h-21.8v-3.2H114.2z"/>
<path class="st0" d="M179.1,45.9c0,3.7-0.3,6.9-1,9.6c-0.7,2.7-1.7,4.9-3,6.7c-1.3,1.8-3,3-4.9,3.9c-1.9,0.8-4.2,1.3-6.7,1.3
	c-1.5,0-2.8-0.2-4-0.5c-1.2-0.3-2.3-0.8-3.2-1.4c-1-0.6-1.8-1.3-2.5-2.1c-0.7-0.8-1.4-1.7-1.9-2.7h-0.5l-1.3,6h-12.3v-3.2h0.6
	c0.9,0,1.7-0.1,2.5-0.2c0.8-0.1,1.4-0.4,2-0.8c0.6-0.4,1-0.9,1.4-1.7c0.3-0.7,0.5-1.7,0.5-2.9V16.7c0-1.1-0.2-2-0.5-2.7
	c-0.3-0.7-0.8-1.2-1.4-1.6c-0.6-0.4-1.2-0.6-2-0.7c-0.8-0.1-1.6-0.2-2.4-0.2h-0.6V8.2h14.1v14.1c0,0.9,0,1.9,0,3
	c0,1.1-0.1,2.2-0.1,3.3c-0.1,1.2-0.1,2.4-0.2,3.7h0.3c0.6-1.2,1.2-2.2,1.9-3.2c0.7-0.9,1.6-1.8,2.5-2.4c0.9-0.7,2-1.2,3.2-1.5
	c1.2-0.4,2.5-0.5,4-0.5c2.5,0,4.8,0.4,6.7,1.3c1.9,0.8,3.6,2.1,4.9,3.9c1.3,1.7,2.3,3.9,3,6.6C178.8,39,179.1,42.2,179.1,45.9
	 M162.2,29.5c-2,0-3.7,0.3-5,1c-1.3,0.7-2.4,1.7-3.2,3c-0.8,1.3-1.4,3-1.7,5.1c-0.3,2-0.5,4.5-0.5,7.2c0,2.7,0.2,5,0.5,7.1
	c0.3,2.1,0.9,3.8,1.7,5.2c0.8,1.4,1.9,2.5,3.2,3.2c1.3,0.7,3,1.1,5,1.1c1.7,0,3.1-0.4,4.3-1.1c1.2-0.7,2.2-1.8,2.9-3.2
	c0.8-1.4,1.3-3.1,1.7-5.2c0.4-2.1,0.5-4.4,0.5-7.1c0-2.7-0.2-5.1-0.5-7.1c-0.3-2-0.9-3.7-1.7-5.1c-0.8-1.3-1.7-2.4-3-3
	C165.3,29.9,163.9,29.5,162.2,29.5"/>
<path class="st0" d="M221,45.9c0,7.2-1.5,12.6-4.6,16.1c-3.1,3.5-7.5,5.3-13.4,5.3c-2.8,0-5.3-0.4-7.5-1.3c-2.2-0.9-4.1-2.2-5.6-4
	c-1.5-1.8-2.7-4-3.5-6.7c-0.8-2.7-1.2-5.8-1.2-9.4c0-7.2,1.5-12.5,4.6-16c3-3.5,7.5-5.2,13.5-5.2c2.8,0,5.3,0.4,7.5,1.3
	c2.2,0.9,4.1,2.2,5.6,3.9c1.5,1.8,2.7,4,3.5,6.6C220.6,39.2,221,42.3,221,45.9 M192.6,45.9c0,2.8,0.2,5.4,0.6,7.5
	c0.4,2.2,1,4,1.8,5.5c0.8,1.5,1.9,2.6,3.3,3.3c1.3,0.7,3,1.1,4.9,1.1c1.9,0,3.5-0.4,4.9-1.1c1.3-0.7,2.4-1.9,3.2-3.3
	c0.8-1.5,1.4-3.3,1.8-5.5c0.4-2.2,0.5-4.7,0.5-7.5c0-2.8-0.2-5.3-0.6-7.5c-0.4-2.1-1-3.9-1.8-5.4c-0.8-1.4-1.9-2.5-3.2-3.2
	c-1.3-0.7-3-1.1-4.9-1.1c-1.9,0-3.5,0.4-4.9,1.1c-1.3,0.7-2.4,1.8-3.2,3.2c-0.8,1.4-1.4,3.2-1.8,5.4C192.8,40.5,192.6,43,192.6,45.9
	"/>
<path class="st0" d="M246.3,66.5h-22.1v-3.2h0.2c0.9,0,1.7-0.1,2.5-0.2c0.8-0.1,1.4-0.4,2-0.8c0.6-0.4,1-0.9,1.3-1.7
	c0.3-0.7,0.5-1.7,0.5-2.9V33.9c0-1.1-0.2-2-0.5-2.7c-0.3-0.7-0.8-1.2-1.4-1.6c-0.6-0.4-1.2-0.6-2-0.8c-0.8-0.1-1.6-0.2-2.4-0.2h-0.2
	v-3.2h11.8l1.5,7.6h0.4c0.5-1.1,1-2.2,1.5-3.2c0.5-1,1.2-1.9,1.9-2.7c0.8-0.8,1.7-1.4,2.8-1.8c1.1-0.4,2.5-0.7,4.2-0.7
	c2.8,0,4.9,0.5,6.2,1.5c1.4,1,2,2.4,2,4.1c0,0.8-0.1,1.5-0.4,2.2c-0.3,0.7-0.7,1.3-1.3,1.7c-0.6,0.5-1.3,0.9-2.2,1.1
	c-0.9,0.3-2,0.4-3.3,0.4c0-2.1-0.3-3.7-0.9-4.6c-0.6-0.9-1.6-1.4-3.1-1.4c-0.9,0-1.8,0.3-2.5,0.8c-0.8,0.5-1.4,1.3-2,2.1
	c-0.6,0.9-1,1.9-1.4,3.1c-0.4,1.1-0.7,2.3-0.9,3.5c-0.2,1.2-0.4,2.4-0.5,3.6c-0.1,1.2-0.1,2.3-0.1,3.3v12.1c0,1.1,0.2,2,0.5,2.7
	c0.3,0.7,0.8,1.2,1.4,1.6c0.6,0.4,1.2,0.6,2,0.7c0.8,0.1,1.6,0.2,2.4,0.2h2.1V66.5z"/>
<path class="st0" d="M278.8,63.3v3.2h-20.7v-3.2h0.6c0.9,0,1.7-0.1,2.5-0.2c0.8-0.1,1.4-0.4,2-0.8c0.6-0.4,1-0.9,1.3-1.7
	c0.3-0.7,0.5-1.7,0.5-2.9V33.9c0-1.1-0.2-2-0.5-2.7c-0.3-0.7-0.8-1.2-1.4-1.6c-0.6-0.4-1.2-0.6-2-0.8c-0.8-0.1-1.6-0.2-2.4-0.2h-0.2
	v-3.2H271l1,6.2h0.4c0.8-1.4,1.6-2.6,2.5-3.5c0.9-0.9,1.8-1.6,2.8-2.1c1-0.5,2-0.9,3.1-1c1.1-0.2,2.3-0.3,3.5-0.3
	c2,0,3.8,0.3,5.4,0.9c1.6,0.6,2.9,1.5,4,2.7c1.1,1.2,2,2.8,2.5,4.7c0.6,1.9,0.9,4.2,0.9,6.8v18.1c0,1.2,0.1,2.2,0.4,2.9
	c0.3,0.7,0.7,1.3,1.2,1.7c0.5,0.4,1.2,0.6,1.9,0.8c0.7,0.1,1.5,0.2,2.4,0.2h0.3v3.2H290V40c0-1.7-0.1-3.2-0.4-4.5
	c-0.3-1.3-0.8-2.4-1.4-3.3c-0.7-0.9-1.5-1.6-2.6-2c-1.1-0.5-2.4-0.7-3.9-0.7c-1.8,0-3.2,0.3-4.4,1c-1.2,0.7-2.1,1.6-2.9,2.7
	c-0.7,1.1-1.2,2.5-1.6,4c-0.3,1.5-0.5,3.1-0.5,4.7v16.2c0,1.1,0.2,2,0.5,2.7c0.3,0.7,0.8,1.2,1.4,1.6c0.6,0.4,1.2,0.6,2,0.7
	c0.8,0.1,1.6,0.2,2.4,0.2H278.8z"/>
<path class="st0" d="M109,63.3c-0.8,0-1.6-0.1-2.2-0.3c-0.6-0.2-1.1-0.5-1.5-0.9c-0.4-0.4-0.6-1-0.8-1.7c-0.2-0.7-0.3-1.6-0.3-2.7
	V37.9c0-2.4-0.3-4.5-0.9-6.2c-0.6-1.7-1.5-3.1-2.6-4.1c-1.2-1-2.6-1.8-4.4-2.3c-1.7-0.5-3.8-0.7-6.1-0.7c-1.9,0-3.7,0.1-5.4,0.4
	c-1.7,0.3-3.1,0.7-4.4,1.3c-1.1,0.5-1.9,1.1-2.6,1.8c0.1,0,0.2,0,0.3,0h11.8c1.2,0,2.4,0.3,3.4,0.9c0.1,0,0.2,0.1,0.3,0.1
	c0.9,0.5,1.7,1.1,2.2,1.9c0.3,0.5,0.5,1,0.6,1.5c0.2,0.5,0.3,1,0.3,1.5v0c0.2,1.2,0.2,2.4,0.2,3.8v4.6l-6.4,0.2
	C84.8,42.9,80.4,44,77.5,46c-2.9,2-4.3,5-4.3,9.1c0,2.1,0.3,3.9,0.9,5.4c0.6,1.5,1.4,2.8,2.5,3.8c1.1,1,2.3,1.8,3.8,2.2
	c1.5,0.5,3,0.7,4.7,0.7c1.6,0,3-0.2,4.1-0.5c1.1-0.4,2.2-0.9,3.1-1.5c0.9-0.6,1.7-1.4,2.5-2.3c0.7-0.9,1.5-1.9,2.3-3h0.6l1.2,6.6
	h10.4v-3.2H109z M97,51.9c0,1.6-0.2,3.1-0.7,4.4c-0.5,1.3-1.2,2.4-2,3.4c-0.9,0.9-2,1.6-3.2,2.1c-1.3,0.5-2.7,0.7-4.2,0.7
	c-2.1,0-3.7-0.6-4.7-1.8c-1-1.2-1.5-3-1.5-5.4c0-1.5,0.2-2.8,0.6-4c0.4-1.1,1-2.1,1.9-2.9c0.9-0.8,2.1-1.4,3.5-1.8
	c1.5-0.4,3.3-0.7,5.5-0.8l4.9-0.2V51.9z"/>
<path class="st0" d="M127.6,13.7c0,0.9-0.7,1.6-1.6,1.6h-3.9c-0.9,0-1.6-0.7-1.6-1.6V9.8c0-0.9,0.7-1.6,1.6-1.6h3.9
	c0.9,0,1.6,0.7,1.6,1.6V13.7z"/>
<path class="st0" d="M58.1,61c-0.3,0.6-0.6,1.1-1.1,1.5c-0.5,0.3-1,0.6-1.7,0.7c-0.2,0-0.4,0.1-0.7,0.1v3.3h14.8V63
	c-0.6-0.1-1.2-0.4-1.7-0.7c-0.6-0.4-1-0.9-1.4-1.7c-0.3-0.7-0.5-1.7-0.5-2.9V20.5c0-1.2,0.2-2.2,0.5-2.9c0.3-0.7,0.8-1.3,1.4-1.7
	c0.5-0.3,1-0.5,1.7-0.7v-3.5H56.2L40.5,55.6L24.6,11.8h-15V15c0.3,0,0.6,0.1,0.9,0.1c0.8,0.1,1.4,0.4,2,0.7c0.6,0.4,1,0.9,1.4,1.6
	c0.3,0.7,0.5,1.6,0.5,2.7v38c0,1.1-0.2,2-0.5,2.7c-0.3,0.7-0.8,1.2-1.4,1.6c-0.6,0.4-1.2,0.6-2,0.7c-0.3,0-0.6,0.1-0.9,0.1v3.3h13.1
	v-3.3c-0.2,0-0.3,0-0.5-0.1c-0.7-0.1-1.3-0.4-1.8-0.8c-0.5-0.4-0.9-0.9-1.1-1.7C19.2,60,19,59,19,57.8V17.6l17.8,48.9H41l17.6-49v41
	C58.5,59.5,58.4,60.4,58.1,61"/>
<path class="st0" d="M53.1,80.3l9.6,33.2c0.7,2.5,1.4,5,1.9,7.3c0.6,2.3,1,4.4,1.4,6.2c0.4-1.9,0.8-3.8,1.3-5.8
	c0.5-2,1.1-4.3,1.8-6.8l6.7-23.7c0.1-0.3,0.2-0.6,0.3-1c0.1-0.4,0.2-0.8,0.3-1.1c0.1-0.4,0.1-0.7,0.2-1c0.1-0.3,0.1-0.6,0.1-0.8
	c0-1.3-0.4-2.3-1.3-2.9c-0.8-0.6-2.1-0.9-3.8-0.9h-1.8v-3.2h18.7V83h-1.5c-0.7,0-1.4,0.1-2,0.2c-0.6,0.1-1.1,0.4-1.5,0.9
	c-0.4,0.4-0.9,1-1.2,1.8c-0.4,0.8-0.7,1.8-1.1,3.1l-13,45.6h-6.9l-12.5-43l-11.7,43h-7.1L16,87c-0.2-0.8-0.5-1.5-0.8-2
	c-0.3-0.5-0.7-0.9-1.1-1.2c-0.4-0.3-0.9-0.5-1.5-0.6C12,83,11.4,83,10.6,83h-1v-3.2h21.1V83H29c-1.5,0-2.7,0.3-3.5,0.9
	c-0.8,0.6-1.1,1.5-1.1,2.8c0,0.4,0.1,0.9,0.2,1.3c0.1,0.4,0.3,1,0.4,1.5l7,24.5c0.6,2.3,1.3,4.6,1.8,6.8c0.6,2.2,1.1,4.3,1.5,6.1
	c0.4-2,0.8-4.2,1.3-6.5c0.5-2.4,1.1-4.8,1.8-7.3l9.1-32.9H53.1z"/>
<path class="st0" d="M123.9,131.3c0.9,0,1.7-0.1,2.5-0.2c0.8-0.1,1.4-0.4,2-0.8c0.6-0.4,1-0.9,1.3-1.7c0.3-0.7,0.5-1.7,0.5-2.9V84.6
	c0-1.1-0.2-2-0.5-2.7c-0.3-0.7-0.8-1.2-1.4-1.6c-0.6-0.4-1.2-0.6-2-0.7c-0.8-0.1-1.6-0.2-2.4-0.2h-1v-3.2h14.5v49.6
	c0,1.2,0.2,2.2,0.5,2.9c0.3,0.7,0.8,1.3,1.3,1.7c0.6,0.4,1.2,0.6,2,0.8c0.8,0.1,1.3,0.2,2.2,0.2h0.4v3.2H123v-3.2H123.9z"/>
<path class="st0" d="M168.1,131.3v3.2h-21.7v-3.2h0.4c0.9,0,1.4-0.1,2.2-0.2c0.8-0.1,1.4-0.4,2-0.8c0.6-0.4,1-0.9,1.3-1.7
	c0.3-0.7,0.5-1.7,0.5-2.9V98.2v-3.6v-3.8c0-2.3,0.3-4.3,0.9-6.1c0.6-1.7,1.5-3.2,2.7-4.4c1.2-1.2,2.6-2.1,4.3-2.7
	c1.7-0.6,3.6-0.9,5.7-0.9c2,0,3.7,0.1,5.1,0.4c1.4,0.3,2.5,0.6,3.3,1.1c0.8,0.5,1.4,1,1.8,1.7c0.4,0.7,0.6,1.4,0.6,2.2
	c0,0.7-0.2,1.3-0.5,1.9c-0.3,0.5-0.8,1-1.3,1.3c-0.6,0.4-1.2,0.6-2,0.8c-0.8,0.2-1.6,0.3-2.5,0.3c0-0.8-0.1-1.5-0.2-2.3
	c-0.2-0.7-0.4-1.4-0.8-2c-0.4-0.6-0.9-1-1.6-1.4c-0.6-0.3-1.5-0.5-2.4-0.5c-1.1,0-2,0.2-2.8,0.6c-0.7,0.4-1.3,1.1-1.8,1.9
	c-0.5,0.8-0.8,1.9-1,3.1c-0.2,1.2-0.3,2.6-0.3,4.3v4.5h10.8v3.6H160v27.6c0,1.2,0.2,2.2,0.5,2.9c0.3,0.7,0.8,1.3,1.3,1.7
	c0.6,0.4,1.2,0.6,2,0.8c0.8,0.1,1.6,0.2,2.4,0.2H168.1z"/>
<path class="st0" d="M193.9,131.3v3.2h-23.1v-3.2h0.4c0.9,0,1.7-0.1,2.5-0.2c0.8-0.1,1.4-0.4,2-0.8c0.6-0.4,1-0.9,1.4-1.7
	c0.3-0.7,0.5-1.7,0.5-2.9V98.2h-7v-3.6h7v-3.8c0-2.3,0.3-4.3,0.9-6.1c0.6-1.7,1.5-3.2,2.7-4.4c1.2-1.2,2.6-2.1,4.3-2.7
	c1.7-0.6,3.6-0.9,5.7-0.9c2,0,3.7,0.1,5.1,0.4c1.4,0.3,2.5,0.6,3.3,1.1c0.8,0.5,1.4,1,1.8,1.7c0.4,0.7,0.6,1.4,0.6,2.2
	c0,0.7-0.2,1.3-0.5,1.9c-0.3,0.5-0.8,1-1.3,1.3c-0.6,0.4-1.2,0.6-2,0.8c-0.8,0.2-1.6,0.3-2.5,0.3c0-0.8-0.1-1.5-0.2-2.3
	c-0.2-0.7-0.4-1.4-0.8-2c-0.4-0.6-0.9-1-1.6-1.4c-0.7-0.3-1.5-0.5-2.4-0.5c-1.1,0-2,0.2-2.8,0.6c-0.7,0.4-1.3,1.1-1.8,1.9
	c-0.4,0.8-0.8,1.9-1,3.1c-0.2,1.2-0.3,2.6-0.3,4.3v4.5h10.8v3.6h-10.8v27.6c0,1.2,0.2,2.2,0.5,2.9c0.3,0.7,0.8,1.3,1.3,1.7
	c0.6,0.4,1.2,0.6,2,0.8c0.8,0.1,1.6,0.2,2.4,0.2H193.9z"/>
<path class="st0" d="M119.9,113.9c0,7.2-1.5,12.6-4.6,16.1c-3.1,3.5-7.5,5.3-13.4,5.3c-2.8,0-5.3-0.4-7.5-1.3
	c-2.2-0.9-4.1-2.2-5.6-4c-1.5-1.8-2.7-4-3.5-6.7c-0.8-2.7-1.2-5.8-1.2-9.4c0-7.2,1.5-12.5,4.6-16c3-3.5,7.5-5.2,13.5-5.2
	c2.8,0,5.3,0.4,7.5,1.3c2.2,0.9,4.1,2.2,5.6,3.9c1.5,1.8,2.7,4,3.5,6.6C119.5,107.1,119.9,110.3,119.9,113.9 M91.5,113.9
	c0,2.8,0.2,5.4,0.6,7.5c0.4,2.2,1,4,1.8,5.5c0.8,1.5,1.9,2.6,3.3,3.3c1.3,0.8,3,1.1,4.9,1.1c1.9,0,3.5-0.4,4.9-1.1
	c1.3-0.7,2.4-1.9,3.2-3.3c0.8-1.5,1.4-3.3,1.8-5.5c0.4-2.2,0.5-4.7,0.5-7.5c0-2.8-0.2-5.3-0.6-7.5c-0.4-2.1-1-3.9-1.8-5.4
	c-0.8-1.4-1.9-2.5-3.2-3.2c-1.3-0.7-3-1.1-4.9-1.1c-1.9,0-3.5,0.4-4.9,1.1c-1.3,0.7-2.4,1.8-3.2,3.2c-0.8,1.4-1.4,3.2-1.8,5.4
	C91.7,108.5,91.5,111,91.5,113.9"/>
<g>
	<g>
		<path class="st1" d="M437,77.5c-1.2,0.1-5.8,0.7-7.4,0.8c-1.5,0.1-12.9,1.5-13.4,1.5c-0.5,0-1.1,0.2-1.4,0.9
			c-0.3,0.7,0.2,2.9,1.3,3.6c1,0.8,2.9,0.4,2.9,0.4s-2,5-2.8,7.2c-0.8,2.2-5.3,13.4-5.5,14.4c-0.2,0.9,0.6,2.1,1.1,2.7
			c0.5,0.6,1.4,0.4,2-0.1c0.6-0.6,0.5-0.8,0.8-1.7c0.3-0.9,2.5-6.3,3.4-8.4c0.9-2,6.9-15.1,6.9-15.1s5.1-1,7.2-1.4
			c2-0.3,5.8-1.3,7.3-2c1.5-0.7,1.9-1.4,2-2.4C441.5,77,438.1,77.4,437,77.5z M385.2,124.2c-0.4,0.4-1.4,2.6-2.1,3.4
			c-0.7,0.8-1.1,0.8-1.5-0.3c-0.4-1-1.2-9.4-1.2-10.7s-0.1-3.1-0.6-4.4c-0.6-1.3-2.9-1.1-3.9-0.7c-1,0.4-5.7,5.9-7.4,8.1
			c-1.8,2.2-5.3,6.5-5.9,6.8c-0.7,0.3-0.6-3.6-0.6-5.8c0.1-2.2,1-6.7,1-6.7s3.7-7.8,4.8-10c1.1-2.2,2.6-5.3,2.9-6.4
			c0.3-1,0.4-3-2.5-4c-2.9-1-6.1,4.8-7.5,8.9c-0.9,2.5-2.3,10.9-2.3,10.9c-0.4,0.7-3.4,6.4-4.5,8.3c-1.2,1.9-3.8,5.2-4.2,5.5
			c-0.4,0.3-1.3,1-1.8,0.2c-0.4-0.8,0-5.7,0.3-7.1c0.3-1.4,2.3-3.6,3-4.1c0.7-0.5,0.9-1,1-2c0.2-0.9-1.4-2-2.2-2.1
			c-0.7-0.1-2.2-0.2-3,0.9c-0.8,1.1-3,3.1-3.6,3.6c-0.6,0.5-2,1.3-2,1.3s-0.8-5.5-0.9-6.7c-0.2-1.2-0.3-2.8-0.2-3.7
			c0.1-1-0.2-2-1-2.8c-0.8-0.8-3.1-0.2-3.8,0.1c-0.7,0.3-0.7,1.4-1.5,2.2c-0.8,0.8-4.7,7-6.3,9.5c-1.5,2.5-5.9,9.4-6.6,9.9
			c-0.7,0.4-1.3-2.1-1.8-5.3c-0.6-3.3,0.1-8.2,0.3-9.3c0.2-1,0.1-1.8-0.4-2.1c-0.5-0.4-1.8-0.8-2.5-0.8c-0.7,0-1.8,0.5-2.6,1.6
			c-0.8,1-6.6,9.5-6.6,9.5l1.5-10.1c0,0,0,0,0.2-1.5c0.2-1.5-1.6-2-2.3-2.1c-0.7-0.2-1.3-0.1-1.5,0c-0.3,0.1-0.9,0.1-1.2,1.1
			c-0.2,1-1.6,11.8-1.6,11.8c-4,6.3-6.3,8.1-7.6,9.1c-1.3,1-2.4,0.8-3.5-0.3c-1.2-1.1-1.7-5.1-1.7-5.1c3.7-5,6.9-10.4,7.7-13.3
			c0.8-2.9-1-5.8-4-6.2c-4.6-0.5-6.7,4.5-7.4,6.3c-2.1,5.1-1.3,12.4-1.3,12.4c-3.9,5.3-5.8,7-6.2,7.4c-0.4,0.4-1.3,0.7-2-0.4
			c-0.7-1.1-1.1-4.2-1.4-7.2s-0.1-6.9,0.2-10.4c0.3-3.5,1.7-9,2.2-10.6c0.5-1.5,1.7-5.2,1.9-6.7c0.3-1.5-1.3-1.9-2.1-2
			c-0.8-0.1-2,0.3-2.3,0.5c-0.3,0.2-1.2,1.6-1.9,2.4c-1.5,1.8-5.7,7.7-7.1,9.8c-1.4,2.1-3.6,5.9-5,8.1c-1.4,2.2-3.3,5.8-3.3,5.8
			c0.4-3.6,2.2-13.3,2.8-16.2c0.6-2.9,3.6-14.1,4-15.8c0.4-1.7-0.1-2.3-0.7-2.8c-0.6-0.5-2.5-0.4-2.9-0.4c-0.3,0.1-1,0.3-1.2,0.8
			c-0.2,0.4-4.4,6-6.7,9.3c-2.3,3.3-8.3,13.5-10.8,17.9c-2.5,4.4-6.4,13.5-6.6,14c-0.1,0.3,0,0.9,0.3,1.5c0.4,0.8,1.5,1.7,2.7,1.5
			c1.2-0.2,1.9-1.4,2.5-3.7c0.7-2.3,3.9-9,5.8-12.5c3-5.5,8.8-15.1,9.6-16.3c0.5-0.9,0.5,0.4,0.2,1.9c-0.3,1.5-2.3,12.3-2.6,14.2
			c-0.3,1.9-1.8,13.1-1.8,14.9c0,1.8,1,2.9,2.5,3.2c1.5,0.4,2.8-1.4,3.4-2.5c0.6-1.2,4.6-9.3,6.5-12.6c1.9-3.3,5.6-9.1,6.1-9.9
			c0.4-0.7,0.4,0.3,0.4,0.3c-0.3,1.9-0.9,9.2-0.8,14.1c0.1,4.9,1.2,9.9,3.2,12.4c2,2.5,5.3,2.3,7.4,0.8c2.1-1.4,5.1-5.6,5.1-5.6
			c1.3,2.6,4.2,5.5,6.8,5.7c2.6,0.2,4.6-1.3,5.7-2.5c1.2-1.2,3-4.1,3-4.1s-0.2,1.8,0,2.7c0.2,0.9,1.3,2.1,2.4,2.4
			c1.1,0.2,2.3-0.9,3.2-2.1c0.9-1.3,6-10.2,6.3-10.7c0.3-0.4,0.6-0.2,0.7,0.4c0.1,0.6,0.5,3.4,1.1,5.9c0.6,2.6,2,4.4,3.5,5.5
			c1.4,1,4,0.5,5.3-0.9c1.3-1.5,3.9-5.3,6.1-9.1c2.2-3.9,4.6-7.7,4.9-8.1c0.3-0.4,0.6-0.2,0.6,0.2c0.1,0.4,0.3,1.8,0.6,3.4
			c0.3,1.7,0.4,5.6,0.4,5.6c-2.9,2-3.7,3.6-4.7,5.7c-1,2,0.5,3.6,1.3,4.1c0.8,0.5,3.1,0.3,5.6-1.7s2.4-6.3,2.4-6.3l1.7-1.5
			c-0.2,6.8,1,8.8,2.9,10.1c1.9,1.3,4.2,0.3,6.2-1.4c2-1.7,5.1-6.6,5.1-6.6c-0.1,1.3,0.2,4.2,1.6,6.2c1.4,2,3.8,1.7,5.5,0.7
			c1.7-1,5.4-5.5,6.6-7.1c1.1-1.4,2.9-3.6,3.9-4.4c0.6-0.5,0.7,0.3,0.7,0.3c1.4,11.4,2.7,12.7,4.2,14c1.5,1.3,4.2,0.1,5.4-1.8
			c1.2-1.9,1.4-5.2,1.3-5.9C386.7,124.7,385.6,123.8,385.2,124.2z M291,110.1c0.6-1.6,1.8-2.7,2.2-2.7c0.6,0-0.1,2.5-0.6,3.8
			c-0.7,1.6-2.8,5.2-2.8,5.2C289.9,113.1,290.6,111.2,291,110.1z M405.4,81.8c-0.8-0.1-1.2-0.1-1.5,0c-0.4,0.1-2.7,5.2-3.7,7.7
			c-1,2.4-4,13.4-4,14.5c-0.1,1.1,0.8,2,1.3,2.1c0.4,0.2,1.4,0.5,2-0.6c0.6-1.2,3.2-8.6,4.1-11.1c0.9-2.5,3.7-8.2,4.2-9.1
			c0.5-1,0.2-1.9-0.2-2.3C407.1,82.5,406.1,81.9,405.4,81.8z"/>
	</g>
</g>
</svg>
