<?xml version="1.0" encoding="utf-8"?>
<!-- Generator: Adobe Illustrator 22.0.1, SVG Export Plug-In . SVG Version: 6.00 Build 0)  -->
<svg version="1.1" id="Layer_1" xmlns="http://www.w3.org/2000/svg" xmlns:xlink="http://www.w3.org/1999/xlink" x="0px" y="0px"
	 viewBox="0 0 23.8 22.9" style="enable-background:new 0 0 23.8 22.9;" xml:space="preserve">
<style type="text/css">
	.st0{display:none;}
</style>
<path d="M13.5,2.4C9.9,2.4,7,5.3,7,8.9s2.9,6.5,6.5,6.5c1.2,0,2.4-0.4,3.4-1l0,0l3.5,3.5c0.6,0.6,1.5,0.6,2.1,0s0.6-1.5,0-2.1l0,0
	L19,12.4l0,0c0.6-1,1-2.2,1-3.4C20,5.3,17,2.4,13.5,2.4z M13.5,4.4c2.5,0,4.5,2,4.5,4.5s-2,4.5-4.5,4.5S9,11.4,9,8.9
	S11,4.4,13.5,4.4z M11,8.4v1h5v-1H11z"/>
<g>
	<path d="M7.3,11.9C7.4,11.9,7.4,11.9,7.3,11.9l0.1,1.9c0,0,0,0.1-0.1,0.1H6.9H6.8l-0.2-1.4c0,0,0,0-0.1,0H4.6c0,0,0,0,0,0.1v6.9
		c0,0,0,0.1,0.1,0.1l1.1,0.1c0,0,0.1,0,0.1,0.1v0.3c0,0,0,0.1-0.1,0.1H2.3c0,0-0.1,0-0.1-0.1v-0.3c0,0,0-0.1,0.1-0.1l1.1-0.1
		c0,0,0.1,0,0.1-0.1v-6.9v-0.1h-2H1.4l-0.2,1.4c0,0,0,0-0.1,0H0.7c0,0-0.1,0-0.1-0.1V12c0,0,0-0.1,0.1-0.1H7.3z"/>
</g>
<g>
	<path d="M10.6,15.4L10.6,15.4v1.1l0,0h-0.3l0,0l-0.1-0.8l0,0H9l0,0v3.9l0,0l0.6,0.1l0,0V20l0,0h-2l0,0v-0.2l0,0l0.6-0.1l0,0v-3.9
		l0,0H7.3l0,0l-0.1,0.8l0,0H6.8l0,0v-1.1l0,0L10.6,15.4L10.6,15.4z"/>
</g>
<path class="st0" d="M13.5,2.4C9.9,2.4,7,5.3,7,8.9s2.9,6.5,6.5,6.5c1.2,0,2.4-0.4,3.4-1l0,0l3.5,3.5c0.6,0.6,1.5,0.6,2.1,0
	s0.6-1.5,0-2.1l0,0L19,12.4l0,0c0.6-1,1-2.2,1-3.4C20,5.3,17,2.4,13.5,2.4z M13.5,4.4c2.5,0,4.5,2,4.5,4.5s-2,4.5-4.5,4.5
	S9,11.4,9,8.9S11,4.4,13.5,4.4z M13,6.4v2h-2v1h2v2h1v-2h2v-1h-2v-2C14,6.4,13,6.4,13,6.4z"/>
</svg>
