<?xml version="1.0" encoding="UTF-8" standalone="no"?>
<svg
   xmlns:dc="http://purl.org/dc/elements/1.1/"
   xmlns:cc="http://creativecommons.org/ns#"
   xmlns:rdf="http://www.w3.org/1999/02/22-rdf-syntax-ns#"
   xmlns:svg="http://www.w3.org/2000/svg"
   xmlns="http://www.w3.org/2000/svg"
   xmlns:sodipodi="http://sodipodi.sourceforge.net/DTD/sodipodi-0.dtd"
   xmlns:inkscape="http://www.inkscape.org/namespaces/inkscape"
   version="1.1"
   x="0px"
   y="0px"
   viewBox="0 0 100 100"
   enable-background="new 0 0 100 100"
   xml:space="preserve"
   id="svg3741"
   sodipodi:docname="noun_Close_2067068.svg"
   width="100"
   height="100"
   inkscape:version="0.92.3 (2405546, 2018-03-11)"><metadata
     id="metadata3747"><rdf:RDF><cc:Work
         rdf:about=""><dc:format>image/svg+xml</dc:format><dc:type
           rdf:resource="http://purl.org/dc/dcmitype/StillImage" /><dc:title></dc:title></cc:Work></rdf:RDF></metadata><defs
     id="defs3745" /><sodipodi:namedview
     pagecolor="#ffffff"
     bordercolor="#666666"
     borderopacity="1"
     objecttolerance="10"
     gridtolerance="10"
     guidetolerance="10"
     inkscape:pageopacity="0"
     inkscape:pageshadow="2"
     inkscape:window-width="3840"
     inkscape:window-height="2004"
     id="namedview3743"
     showgrid="false"
     inkscape:zoom="9.316839"
     inkscape:cx="56.149265"
     inkscape:cy="63.175895"
     inkscape:window-x="-16"
     inkscape:window-y="2864"
     inkscape:window-maximized="1"
     inkscape:current-layer="svg3741" /><g
     id="g3735"
     transform="matrix(1.0526316,0,0,1.0526316,-2.6315789,-2.6315789)"><path
       d="M 50,2.5 C 37.312,2.5 25.384,7.441 16.413,16.413 7.441,25.384 2.5,37.312 2.5,50 2.5,62.688 7.441,74.616 16.413,83.587 25.384,92.559 37.312,97.5 50,97.5 62.688,97.5 74.616,92.559 83.587,83.587 92.559,74.616 97.5,62.688 97.5,50 97.5,37.312 92.559,25.384 83.587,16.413 74.616,7.441 62.688,2.5 50,2.5 Z M 80.052,80.052 C 72.025,88.079 61.353,92.5 50,92.5 38.647,92.5 27.975,88.079 19.948,80.052 11.921,72.025 7.5,61.352 7.5,50 7.5,38.647 11.921,27.975 19.948,19.948 27.975,11.921 38.648,7.5 50,7.5 61.352,7.5 72.025,11.921 80.052,19.948 88.079,27.975 92.5,38.647 92.5,50 c 0,11.352 -4.421,22.025 -12.448,30.052 z"
       id="path3731"
       inkscape:connector-curvature="0" /><path
       d="m 71.01,28.99 c -0.976,-0.977 -2.56,-0.977 -3.535,0 L 50,46.465 32.525,28.99 c -0.976,-0.977 -2.56,-0.977 -3.535,0 -0.977,0.976 -0.977,2.559 0,3.535 L 46.465,50 28.99,67.475 c -0.977,0.976 -0.977,2.559 0,3.535 0.488,0.488 1.128,0.732 1.768,0.732 0.64,0 1.28,-0.244 1.768,-0.732 L 50,53.535 67.475,71.01 c 0.488,0.488 1.128,0.732 1.768,0.732 0.64,0 1.28,-0.244 1.768,-0.732 0.977,-0.976 0.977,-2.559 0,-3.535 L 53.535,50 71.01,32.525 c 0.977,-0.976 0.977,-2.559 0,-3.535 z"
       id="path3733"
       inkscape:connector-curvature="0" /></g></svg>