<?xml version="1.0" encoding="utf-8"?>
<!-- Generator: Adobe Illustrator 22.0.1, SVG Export Plug-In . SVG Version: 6.00 Build 0)  -->
<svg version="1.1" id="Layer_1" xmlns="http://www.w3.org/2000/svg" xmlns:xlink="http://www.w3.org/1999/xlink" x="0px" y="0px"
	 viewBox="0 0 141.7 141.7" style="enable-background:new 0 0 141.7 141.7;" xml:space="preserve">
<path d="M131.7,111.6c-0.1-0.1-0.2-0.1-0.2-0.2L108.6,89l-5.7-5.6c5.9-12.9,5.9-28.3-1.3-41.8c-12.3-23-40.9-31.7-63.9-19.4
	c-0.5,0.3-0.9,0.5-1.4,0.8C28.9,27.2,23,33.2,19,40.2c-2.7-1.4-4.6-2.6-4.9-2.7c0.3,0.2,0.1,0-0.2-0.2c-0.2-0.2-0.5-0.4-0.8-0.5
	c-0.1-0.1-0.2-0.1-0.3-0.1c-0.3-0.1-0.5-0.1-0.8-0.1c-0.1,0-0.1,0-0.2,0c-0.2,0-0.4,0-0.7,0.1c0,0,0,0-0.1,0c-1,0.3-1.9,1-2.3,2.1
	c-0.1,0.4-0.2,0.8-0.1,1.2c0,0,0,0,0,0c0,0,0,0,0,0c0,0.4,0,0.7,0.1,1.1L13,58.8l1.3,5.5l1.1,4.9l0.4,1.6c0.8,3.3,3.4,4.1,5.8,1.8
	l5.5-5.1l1.5-1.5l3.6-3.3l11-10.2l0.7-0.7c0.1-0.1,0.1-0.2,0.2-0.2l0.5-0.5l0,0c0.3-0.3,0.5-0.7,0.7-1.1c0-0.1,0-0.2,0.1-0.3
	c0.2-0.8,0-1.7-0.5-2.3c-0.4-0.6-1-1-1.7-1.3c0,0-4.3,0.3-10.4-0.9c1.4-2.1,3.1-4,4.9-5.7c2-1.8,4.3-3.4,6.7-4.8
	c4.7-2.5,9.7-3.7,14.7-3.9c12.1-0.3,24,6.1,30.1,17.5c7.7,14.5,3.6,32.1-9,41.8c-0.4,0.3-0.9,0.7-1.3,1c-0.2,0.1-0.3,0.2-0.5,0.4
	c-0.1,0.1-0.2,0.2-0.3,0.2c-0.6,0.4-1.2,0.7-1.8,1.1c-9,5-20.3,5.7-30.3,0.9c-1.3-0.6-2.5-1.3-3.7-2.1c-0.3-0.2-0.7-0.4-1-0.7
	c-0.2-0.1-0.5-0.1-0.8-0.1c-0.4,0-0.9,0.1-1.2,0.4l-0.5,0.4L31.3,97l-0.8,0.6c-0.3,0.4-0.5,0.9-0.5,1.5c0,0.5,0.2,0.9,0.4,1.3
	c0.4,0.3,0.7,0.6,1.1,0.9c2.5,1.9,5.2,3.6,8.2,5c10.4,5,21.8,5.8,32.2,3.1c0,0,0.1,0,0.1,0c0.4-0.1,0.9-0.2,1.3-0.4
	c3-0.9,6-2.1,8.9-3.6c1.2-0.6,2.3-1.3,3.4-2c0.2-0.1,0.3-0.2,0.5-0.3c0.3-0.2,0.6-0.4,0.9-0.6c0.1-0.1,0.2-0.2,0.3-0.2l4.8,4.8
	l22.1,21.7c0,0.1,0.1,0.1,0.1,0.2c3.8,3.8,10.7,2.9,15.5-1.9C134.6,122.3,135.4,115.3,131.7,111.6z"/>
</svg>
